<?xml version="1.0" encoding="utf-8"?>
<!-- Generator: Adobe Illustrator 18.1.1, SVG Export Plug-In . SVG Version: 6.00 Build 0)  -->
<svg version="1.1" id="Layer_1" xmlns="http://www.w3.org/2000/svg" xmlns:xlink="http://www.w3.org/1999/xlink" x="0px" y="0px"
	 width="500px" height="500px" viewBox="0 0 500 500" style="enable-background:new 0 0 500 500;" xml:space="preserve">
<style type="text/css">
	.st0{fill:#1E4A26;}
	.st1{fill:#FFFFFF;}
</style>
<rect x="-9" y="-9" class="st0" width="518" height="518"/>
<g>
	<path class="st1" d="M173.6,271.8c-1-0.8-1.6-2.2-1.6-4.2c0-2,0.7-7.9,2.1-17.8c1.4-9.9,2.1-17,2.1-21.2c0-4.2-0.3-7-0.9-8.3
		c4.2,0.3,7,2,8.4,5c3.2-1.7,6.7-2.6,10.6-2.6c3.9,0,6.9,1.2,9.1,3.6c2.2,2.4,3.3,5.3,3.3,8.8c0,4.3-1.6,8.2-4.7,11.7
		c-1.5,1.7-3.5,3-6,4.1c-2.4,1-5.1,1.6-8.1,1.6c-1.3,0-2.4-0.1-3.6-0.2l-0.2-2.6c0.2,0,0.3,0,0.5,0c4.7,0,8.5-1.7,11.2-5.2
		c1.9-2.5,2.9-5.1,2.9-7.9c0-4-1.6-6.7-4.9-8c-2.8-1-5.9-0.8-9.4,0.6v0.1c0,1.6-0.6,6.8-1.8,15.5c-1.2,8.8-1.8,16.1-1.8,22
		c0,2.6,0.1,4.7,0.4,6.1c-1.3,0.1-2.2,0.1-2.6,0.1C176.3,273,174.6,272.6,173.6,271.8z"/>
	<path class="st1" d="M220.3,250.8c-1,5.9-1.5,10.8-1.6,14.7c0,3.9,0.2,6.3,0.7,7.5c-3.2-0.8-5.4-2.1-6.6-3.8
		c-1.1-1.7-1.7-4.2-1.7-7.4c0-1.7,0.3-4.9,1-9.5c0.7-4.6,1-8.1,1-10.7c0-2.5-0.1-4.5-0.4-5.9c0.9-0.1,1.8-0.1,2.6-0.1
		c2.4,0,4.1,0.4,5,1.2c0.9,0.8,1.4,2.2,1.4,4.2C221.9,241.6,221.4,244.8,220.3,250.8z M222.8,230.1c-1.2,0.2-2.2,0.3-3.1,0.3
		c-4.3,0-6.4-1.5-6.4-4.5c0-1.1,0.3-2.6,0.9-4.4c1.2-0.2,2.2-0.2,3.1-0.2c4.3,0,6.4,1.5,6.4,4.5
		C223.8,226.7,223.4,228.2,222.8,230.1z"/>
	<path class="st1" d="M247.5,243.3l-12.5,1.2c-1.7,0-2.8-0.3-3.5-1c-0.6-0.7-1-1.7-1-3.2c0-1.4,0.2-2.7,0.5-4
		c4.1,0.8,8,1.2,11.6,1.2c3.6,0,6.5-0.1,8.6-0.3c0.8-1.6,1.4-3,1.7-4.2c2.5,2.3,3.7,4.3,3.7,6s-1,3.7-2.9,6.1
		c-1.9,2.4-4.7,5.6-8.4,9.5c-3.6,3.9-6.6,7.4-8.8,10.3c3.6,0.2,6.8,0.3,9.5,0.3s5.6-0.3,8.4-0.8c0.2,1.3,0.3,2.7,0.3,4
		c0,1.4-0.4,2.4-1.1,3.2c-0.7,0.8-2.1,1.2-3.9,1.2c-0.8,0-3.1-0.2-7-0.7c-3.9-0.4-7.2-0.7-10-0.7s-5.6,0.5-8.3,1.4
		c0.7-4,2.2-6.5,4.6-7.4C236.8,257.3,242.9,249.9,247.5,243.3z"/>
	<path class="st1" d="M278.4,243.3l-12.5,1.2c-1.7,0-2.8-0.3-3.5-1c-0.6-0.7-1-1.7-1-3.2c0-1.4,0.2-2.7,0.5-4
		c4.1,0.8,8,1.2,11.6,1.2c3.6,0,6.5-0.1,8.6-0.3c0.8-1.6,1.4-3,1.7-4.2c2.5,2.3,3.7,4.3,3.7,6s-1,3.7-2.9,6.1
		c-1.9,2.4-4.7,5.6-8.4,9.5c-3.6,3.9-6.6,7.4-8.8,10.3c3.6,0.2,6.8,0.3,9.5,0.3s5.6-0.3,8.4-0.8c0.2,1.3,0.3,2.7,0.3,4
		c0,1.4-0.4,2.4-1.1,3.2c-0.7,0.8-2.1,1.2-3.9,1.2c-0.8,0-3.1-0.2-7-0.7c-3.9-0.4-7.2-0.7-10-0.7c-2.8,0-5.6,0.5-8.3,1.4
		c0.7-4,2.2-6.5,4.6-7.4C267.8,257.3,273.8,249.9,278.4,243.3z"/>
	<path class="st1" d="M299.4,260.2c0,2,0.4,3.6,1.1,4.8c0.7,1.2,1.8,1.8,3.1,1.8c2,0,3.8-1.1,5.6-3.4c1.8-2.3,3.2-5.2,4.2-8.8
		s1.6-7,1.6-10.2c0-3.2-0.1-5.8-0.4-7.8c1.2-0.1,2.1-0.1,2.6-0.1c2.1,0,3.7,0.4,4.8,1.2c1.1,0.8,1.6,2.2,1.6,4.2
		c0,0.8-0.5,4-1.5,9.7c-1,5.6-1.5,10.2-1.5,13.6c0,3.4,0.6,6.4,1.9,9c-3.1-0.5-5.4-1.7-6.9-3.5c-1.5-1.8-2.2-4.3-2.2-7.7
		c0-0.6,0.1-1.7,0.3-3.4c-1.1,4-3.1,7.1-6,9.6c-2.9,2.4-5.7,3.6-8.5,3.6s-5-1-6.7-3.1s-2.5-5-2.5-8.8c0-3.8,0.7-7.5,2-11
		c1.4-3.6,3.4-6.6,6.1-9.1c2.7-2.5,5.7-3.7,9.1-3.7c1.9,0,3.9,0.5,5.9,1.4c-4.2,1.5-7.6,4.4-10.1,8.8
		C300.6,251.7,299.4,256,299.4,260.2z"/>
</g>
<g>
</g>
<g>
</g>
<g>
</g>
<g>
</g>
<g>
</g>
<g>
</g>
<g>
</g>
<g>
</g>
<g>
</g>
<g>
</g>
<g>
</g>
<g>
</g>
<g>
</g>
<g>
</g>
<g>
</g>
</svg>
