<?xml version="1.0" encoding="utf-8"?>
<!-- Generator: Adobe Illustrator 18.1.1, SVG Export Plug-In . SVG Version: 6.00 Build 0)  -->
<svg version="1.1" id="Layer_1" xmlns="http://www.w3.org/2000/svg" xmlns:xlink="http://www.w3.org/1999/xlink" x="0px" y="0px"
	 width="792px" height="231px" viewBox="0 154 792 231" style="enable-background:new 0 154 792 231;" xml:space="preserve">
<style type="text/css">
	.st0{fill:#C2371E;}
	.st1{fill:none;}
	.st2{fill:#FFFFFF;stroke:#FFFFFF;stroke-width:0.5;stroke-miterlimit:10;}
	.st3{fill:#C8AFB9;}
	.st4{fill:#F6E1EA;}
	.st5{fill:#A44023;}
	.st6{fill:#F0AA46;stroke:#A44023;stroke-width:0.25;stroke-miterlimit:10;}
	.st7{fill:#ED934F;}
	.st8{fill:#919191;}
	.st9{fill:#691924;}
	.st10{fill:#661C25;}
	.st11{fill:#611920;}
	.st12{fill:#6A1E26;}
	.st13{fill:#411A17;}
	.st14{fill:#E2EBE7;}
	.st15{fill:#EDF3F1;}
	.st16{fill:#E8F0EC;}
	.st17{fill:#122C1A;}
	.st18{fill:#06190C;}
	.st19{fill:#001C08;}
	.st20{fill:#6D0000;}
	.st21{fill:#AFB4AC;}
	.st22{fill:#73A282;}
	.st23{fill:#BADAC4;}
	.st24{fill:#F0AA46;}
	.st25{fill:#80303D;}
	.st26{fill:#7D0617;}
	.st27{fill:#1E4A26;}
	.st28{fill:#243326;}
	.st29{fill:#8A9D88;}
	.st30{fill:#A0A8A6;}
	.st31{fill:#CBD9D7;}
	.st32{fill:#BFB6B7;}
	.st33{fill:#384836;}
	.st34{fill:#622336;}
	.st35{fill:#34492E;}
	.st36{fill:#693944;}
	.st37{fill:#FFFFFF;}
</style>
<rect x="-9" y="143.7" class="st0" width="810" height="178.3"/>
<g>
	<rect x="196.4" y="174.8" class="st1" width="304" height="150.6"/>
	<path class="st2" d="M199.2,273c1-3.9,3.1-6.9,6.2-8.9c-0.3-1.4-0.5-3.2-0.5-5.6s0.7-8.8,2.1-19.3c2.5-17.4,3.7-30.8,3.7-40.3
		c0-2-0.1-4.8-0.4-8.3c5.1,0.3,8.9,1.1,11.2,2.4c1,0.5,1.8,1.4,2.3,2.5s0.9,2.1,1,3.1c0.1,0.9,0.2,2.7,0.2,5.2s-1,10.7-3.1,24.6
		c-2.1,13.9-3.3,24.8-3.6,32.8c16,0,27.9-1.3,35.6-3.9c-0.6,5-2.1,8.9-4.6,11.7c-2.4,2.8-5.5,4.2-9.1,4.2c-1.1,0-4.1-0.3-9.1-0.9
		s-10.2-0.9-15.8-0.9C209.9,271.3,204.5,271.9,199.2,273z"/>
	<path class="st2" d="M279.8,211.9c0.7,0,1.4,0.2,2.1,0.7c0.6,0.4,1,0.9,1,1.4c-6.8,4.7-10.9,11.3-12.3,19.8
		c1.4-3.8,3.2-7.1,5.2-9.8c2.1-2.8,4.2-4.9,6.4-6.3c4.3-2.6,8.4-4,12.5-4s7.5,2,10.3,6s4.3,9.3,4.3,16c0,7.5-1.5,14.4-4.6,20.7
		c-3.4,7.1-8.2,12-14.4,14.7c-3.5,1.6-7.4,2.3-11.6,2.3c-5.9,0-11-2.3-15.3-6.8c-4.4-4.6-6.5-11.1-6.5-19.7c0-8.5,2.1-16.1,6.3-22.6
		C267.3,217.7,272.9,213.6,279.8,211.9z M288.4,221c-4.4,0-8.3,3-11.8,8.9c-3.4,5.9-5.2,11.8-5.2,17.7c0,12.3,3.2,18.4,9.5,18.4
		c4.5,0,8.2-3,11-8.9s4.3-12.5,4.3-19.9C296.3,226.4,293.6,221,288.4,221z"/>
	<path class="st2" d="M354.1,213.3c2-0.1,3.4-0.2,4.3-0.2c3.5,0,6.2,0.6,8,1.9s2.7,3.6,2.7,7.1c0,1.1-0.6,5.8-1.9,14.2
		c-1.3,8.4-1.9,15.6-1.9,21.6s0.6,11.3,1.9,15.9c-5.1-1.6-8.6-3.9-10.5-6.9c-2-3-2.9-6.7-2.9-11c0-1.7,0.4-5.5,1.1-11.4
		c-2.1,7.7-5.3,14.2-9.6,19.4c-4.3,5.2-8.3,7.9-12.1,7.9c-7.8,0-11.7-5.6-11.7-16.8c0-3.7,0.6-8.9,1.7-15.6
		c1.1-6.7,1.7-11.7,1.7-15.1s-0.5-6.9-1.4-10.4c5.6,0,9.7,0.7,12.2,2.2s3.8,4.3,3.8,8.7c0,2.3-0.7,6.9-2.1,13.7
		c-1.4,6.8-2.1,12-2.1,15.4c0,5,1.4,7.5,4.1,7.5c1.4,0,2.9-0.9,4.7-2.8c1.8-1.9,3.4-4.3,5.1-7.4c1.6-3.1,3-6.9,4.1-11.5
		s1.7-9.3,1.7-14.1C354.7,220.7,354.5,216.6,354.1,213.3z"/>
	<path class="st2" d="M399.3,237.4c-1.7,9.6-2.5,17.6-2.5,23.8c0,6.2,0.4,10.3,1.2,12.1c-5.3-1.4-8.8-3.4-10.6-6.1
		c-1.8-2.7-2.7-6.7-2.7-12c0-2.8,0.5-8,1.6-15.4c1.1-7.4,1.6-13.2,1.6-17.3s-0.2-7.3-0.6-9.5c1.5-0.1,2.9-0.2,4.2-0.2
		c3.9,0,6.6,0.7,8.2,2c1.5,1.3,2.3,3.6,2.3,6.7C401.7,222.4,400.9,227.8,399.3,237.4z M403.3,203.8c-1.9,0.3-3.5,0.4-5,0.4
		c-7,0-10.4-2.4-10.4-7.3c0-1.8,0.5-4.2,1.5-7.2c1.9-0.3,3.5-0.4,5-0.4c7,0,10.4,2.4,10.4,7.3C404.8,198.4,404.3,200.8,403.3,203.8z
		"/>
	<path class="st2" d="M437,219.3c-1.9,0-3.6,0.6-5.1,1.9c-1.5,1.3-2.2,3-2.2,5.3c0,2.3,0.8,4.5,2.4,6.5s3.5,3.8,5.8,5.3
		s4.6,3.1,6.9,4.7c2.3,1.6,4.4,3.5,6.1,5.9c1.8,2.3,2.7,4.9,2.9,7.8c0,4.9-2.1,9-6.3,12.3c-4.2,3.3-9.4,5-15.6,5s-11.1-1.3-14.6-3.7
		c-3.5-2.5-5.3-5.4-5.3-8.6c0-3.2,1-5.9,3-7.9s4.5-3,7.4-3c1.6,0,3,0.3,4.4,0.8c-2.2,2.3-3.2,4.7-3.2,7.3s0.7,4.6,2.1,6.2
		c1.4,1.6,3.3,2.3,5.8,2.3s4.5-0.6,6.1-1.9c1.7-1.2,2.5-2.9,2.5-4.9s-0.6-3.8-1.7-5.3c-1.1-1.6-2.6-2.9-4.3-4.1
		c-1.7-1.2-3.6-2.5-5.6-4s-3.9-3-5.6-4.5s-3.2-3.4-4.3-5.8c-1.1-2.3-1.7-4.9-1.7-7.6c0-4.8,2-8.7,5.9-11.8c4-3.1,8.9-4.6,14.8-4.6
		s10.2,1.1,13,3.4c2.7,2.3,4.1,5,4.1,8.1s-1,5.7-2.9,7.9c-1.9,2.2-4.4,3.2-7.4,3.2c-1.5,0-3.2-0.3-5.1-0.9c1.5-1.3,2.6-2.8,3.4-4.4
		c0.8-1.7,1.2-3.3,1.2-4.9s-0.7-3-2-4.1C440.5,219.9,438.9,219.3,437,219.3z"/>
	<path class="st2" d="M469.1,186.5c2.6-0.7,5.2-1.1,7.6-1.1c5,0,7.5,2.1,7.5,6.3c0,4.4-1.6,8.6-4.8,12.6c-3.2,4-7.8,7.6-13.9,10.8
		l-2.9-4.6c5.3-4.7,8-10.2,8-16.4C470.6,191.8,470.1,189.3,469.1,186.5z"/>
</g>
<path class="st3" d="M238,279.3c0,5,0,9.9-0.1,14.9c0,1,0.1,2.9-1.9,2c-0.4-0.2-0.3-1.8-0.4-2.8c-2.7-2.3-2.4,2.7-5.4,2.1
	c-4.7-1-5-4.2-6-7.4c-1.3-0.8-2.3-0.2-3.2,0.6c-1.2,1.4-1.6,3.1-1.8,4.8c-0.1,1.4-0.3,2.7-0.9,3.9c-0.7,2.4-0.1,4.1,2.6,4.4
	c2.3,0.2,4.4,0.9,6.4,1.7c3.7,1.3,7.3,1.6,10.5-0.9c1.3-1,2.7-0.8,4.1-0.5c2,0.1,3.9,0,5.8-0.8c0.5-0.4,0.7-0.8,0.9-1.4
	c0-0.6-0.2-1.1-0.5-1.5c-1.4-0.3-3-1.2-4.3-0.9c-4.1,0.9-4.6-1.3-4.7-4.5C238.9,288.4,240,283.8,238,279.3z"/>
<path d="M84.8,377c2.4,3.3,1.8,7.6,1.5,10.9c-0.3,5.3,1.5,6.1,5.8,5.7c1.5-0.1,3,0,4.1,1.3c2,4.2,6.1,4.2,9.7,4.5
	c4.8,0.4,9.6,0.6,14.4,1.4c2.6-0.3,3.4-2.5,4.6-4.2c2.4-7.1,2.6-14.6,3.9-22c0.2-5.9,1.2-11.8,2.1-17.6c0.7-4,2.4-5.4,7-4.5
	c5.2,1,10.9,2,16.1-1.1c1.4-2.9-0.7-3.9-2.7-4.6c-3.4-1.2-6.6-2.9-10-4.2c-2.8-1.1-5.4-2.3-6.6-5.4c-1-2.5-3.2-3.2-5.8-2.2
	c-5,4.6-10.1,9.1-15.2,13.6c-0.8,3.8,2.2,5.6,4,8.1c1.9,1,3.2-0.1,5.4-2c-2.5,5.4-2.3,10.3-2,15c0.4,6.2-2.4,11.7-2.9,17.6
	c-0.1,1.7-1.2,2.7-3.1,2.5c-1.9-0.1-2.4-1.5-2.6-3.1c-0.4-3-0.1-6,0.9-8.8c1.1-3.1,1.9-6.2-0.4-9.1c-3.4-1.5-5.9-3.5-6.8-7.6
	c-0.6-2.9-2.1-6.3-6.6-4.8c-2.3,2.7-1.4,5.5-0.7,8.5c1.4,6,2.5,12.1,3.6,18.2c0.4,2.4,1.3,6-2.5,7c-3.6,0.9-6.8-0.4-8.7-3.8
	c-1.6-2.7-2-5.6-2.1-8.6c-0.2-6.4,0.4-12.8-2-19c-0.6-1.6-0.1-3.4,0.5-5c1.6-4,0.8-7.5-2.2-10.6c-3.3-3.8-7.4-5.7-12.5-6.9
	c-12-2.8-22.1-9.5-31.1-17.8c-2.5-2.3-1.4-5.6-2-8.4c-0.6-2.7-0.3-6.6-5.1-4.7c-1.8,4.2-1.6,8.7-2,13.1c0.4,4.7,3.1,7.7,7.2,9.8
	c5.9,2.9,11.8,6,17.7,9c0.6,0.1,1.3,0.2,1.9,0.4c13.1,3.8,22.6,10.4,22.4,25.9C82.2,367.8,83.9,372.4,84.8,377z"/>
<path d="M33.1,318.1c2.9-4,2.8-8.7,2.7-13.3c2.5-2.8,2.2-6.1,1.4-9.4c-2.1-2.9-2.4-6.2-2.1-9.6c0.4-5.1,3.5-7.4,8.6-6
	c3.1,0.8,6.2,1.8,8.6-1.4c1.3-2.9,2.5-5.7,4.6-8.1c2.5-2.9,3-6.3,2.5-10c0-1-0.3-2-0.7-2.9c-0.9-1.8-2.4-3.1-4.2-4
	c-5.1-2.1-3.5-6.5-3.5-10.4c-0.2-3.1-0.1-6.3-0.6-9.4c-0.4-2.2-1.1-4.7-4.2-4.5c-7.5,5.1-8.2,7.3-5.5,16.6c-0.3,6.3-5.4,4.4-9,5.3
	c-2.4,0.6-6.5-2-7,2c-0.4,3.6-2.1,7.8,1.8,11.1c3.1,2.6,6.4,9.3,5.5,9.9c-5,3.7-0.3,8-1.7,11.6C31.3,296.4,32.2,307.3,33.1,318.1z"
	/>
<path d="M69,170c-7.9,0-15.8-3-23.8,1.7c-8.3,4.8-14.6,14.6-13.2,23c1.5,8.9,9.8,15.8,19.2,18c6.7,1.6,13,1.6,19.6,0.5
	c3.2-0.6,7.8-3.1,9.2,0.5c1.7,4.2,2.3,9.7-1.5,13.9c-0.4,0.5-0.8,1.1-1.3,1.4c-4.5,2.4-5.5,5.6-2.4,9.9c0.4,0.6-0.2,2-0.4,3
	c0,5.7,1.8,11.1,3.6,16.4c1.1,2.5,2.5,4.7,5.2,6.2c-2-0.5-4-1.3-5.3,0.8c-1.2,2,0.1,3.7,1.1,5.3c2.6,4.7,7.5,7.5,10.2,12.1
	c0.4,0.8,0.9,1.5,1.7,2c3.2,1.3,6.4-3,9.6,0.1c8.4,7.7,9.3,7.8,19.9,2c-1.4,2.8-3.3,4.8-3.2,7.4c0.5,2.5,2.2,3.1,4.5,2.9
	c3.1-0.7,4.7-2.9,5.5-5.7c1.2-4.5,4.1-6.6,8.6-7.3c3.2-0.5,6.2-1.6,8.7-3.7c2.3-3.3,7.8-5.5,3.3-10.9c-3.2-1-4.8,1.3-6.6,3.2
	c-5.4,4.3-11.3,3.2-17.2,1.5c-3.8-3.2-8.3-4.6-13.2-4.6c-3.7,0.2-7,2.2-10.7,2.2c-3.3,0-6.6-0.8-6.3-4.6c0.4-4.6-2-7.5-4.7-10.6
	c-0.6-3,2.4-5.3,1.8-8.3c-0.3-1.5-1.5-2.5-2.2-3.9c-1.6-3.1-1.3-5.8,2.2-7.5c3.7-1.8,7.6-3.7,9.9-6.9c2.7-3.8,4.9-3,7.1-0.5
	c2.5,2.8,8.1,1.2,8.7,6.4c0.2,1.2,0.5,2.4,1.4,3.3c4.8,1.5,5-3.5,7.5-5.2c3.2-5.3,7.5-10,2.8-17.1c-1.9-2.9,1.5-6.1,4.3-8.2
	c5.4-2.2,11.4-2,16.8-4.2c13.2-7.9,15.1-22,4.6-35.9c-8.5-8.4-18.9-10.2-30.1-5.1c-5.4,2.5-10.6,5.2-15.9,7.8
	c-6.1,1.5-12.3,0.2-18.2-1C82.8,168.8,75.9,171.1,69,170z"/>
<path class="st4" d="M53.8,254.8c3.2-4.1-3.3-5.8-2.3-9.3c-0.1-0.8-0.2-1.7-0.3-2.5c-1.9,2.1-1.3,5-2.4,7.5
	C47.3,253.7,51.6,253.8,53.8,254.8z"/>
<path class="st5" d="M280.1,324.2c-0.1-6.9-5.4-10.7-9.2-15.4c-0.8-0.5-1.6-1-2.5-1.5c-3.5,1-3.8,1.2-1.5,4.5
	c2.4,3.3,2.1,5.7-0.8,8.3c-2.5,4.2-7.7,0.6-10.5,3.6c-0.4,0.5-0.5,1.1-0.4,1.7c0.1,0.2,0.3,0.3,0.4,0.5c1.8,2.2,6.7,0.3,6.7,3.4
	c0,3.2-2.9,6-5.9,7.8c-0.4,0.2-0.6,0.5-0.9,0.9c-0.8,1.7-0.1,3,1,4.3c2.2,1.8,4.4,0.7,6.6-0.2C271.1,338.4,277.7,333.3,280.1,324.2z
	"/>
<path class="st0" d="M248,299.9c0,0.3,0.1,0.6,0.1,0.9c-2.1,2.6-5.6,1.2-8,2.8c0.7,5.2,4.3,4.3,7.7,3.5c2.2-0.5,4-2.8,6.5-1.2
	c0.9,0.7,1.9,1.3,3,1.5c0.9,0.1,1.7,0.1,2.6-0.3c0.5-0.3,0.9-0.7,1-1.3c0.7-0.9,3.4-2.2,0.6-2.9c-3.6-0.8-4.9-3.6-7.1-5.6
	C252.4,298.7,250,298.9,248,299.9z"/>
<path class="st6" d="M267.1,320.7c3.7-1.5,4.9-6.1,2.4-8.6c-1.3-1.3-5-2.2-1-4.7c-2.1-2.3-4.2,0.2-6.2,0c-2.5,2-2.3,4.9-0.5,6.5
	c2.4,2.2,1.6,4.5,1.7,6.9C264.8,321.5,266,321.6,267.1,320.7z"/>
<path class="st7" d="M263.5,320.3c4.3-1.6,6.5-3.6,0.8-6.3c-3.4-1.6-1.8-4.3-2-6.6c-0.5-0.5-1-1-1.4-1.5c0,0.3-0.1,0.5-0.1,0.8
	c-2.1,2.2-2.2,5.9-5.4,7.3C256,318.7,259.1,320.3,263.5,320.3z"/>
<path class="st8" d="M248,299.9c2.5,0.1,4.9-0.2,6.4-2.5c0.8-3.6,0.3-7.2-0.3-10.8c-2,4.1,1.2,10.5-5.9,12.1
	C248,299,248,299.5,248,299.9z"/>
<path class="st9" d="M35.8,294.6c0,3.4,0,6.8,0.1,10.2c4.4,1.7,2.1,5.5,2.4,8.4c0.3,3.4,0.8,5.5,4.1,8.1c6.2,4.9,12.4,9.6,19.4,12.9
	c4,1.9,8.1,5.2,13.2,4.2c4.7-1,6,4.3,9.7,5.1c2.7,1.1,4.5,4.8,8.3,2.6c1.6-1.9,2-4.2,2.6-6.5c1.6-6.4,0.3-7.8-6.3-6.7
	c-2.5,0.4-4.2-0.1-4.8-2.8C81.6,318.3,72.1,315,62,313.5c-9.5-1.5-11-2.5-11.4-11.9c-0.2-5.8-2.5-11.2-2.9-17
	c-0.3-3.7-3.3-4.8-6.6-4.4c-3.1,0.3-6,1.4-6.4,5.1C34.3,288.4,34.3,291.6,35.8,294.6z"/>
<path class="st10" d="M92.3,346.1c-2.8-0.1-4.6-3.3-7.7-2.6c1.6,3.3,4.3,6.4,0.6,10.3c-0.9,1-1,3.7-0.4,4.9
	c3.7,6.6,1.9,13.7,2.3,20.6c0.6,9.3,4.4,13,13.3,13.5c3.4,0.2,4.4-1.2,4.7-4.4c0.8-8.2-2.6-15.7-3.7-23.6c-0.4-2.7-1.4-5.6-1.4-8.5
	c0-0.3-0.1-0.6-0.1-0.9C98.6,351.3,99.5,345.4,92.3,346.1z"/>
<path d="M100.1,356.3c3.2,1,5.1,3.7,4.9,6.6c-0.5,6.4,3.2,6.8,7.8,6.3c3.9-3.4,4.9-8,5.2-12.9c1.6-3.9-3.2-4.7-3.8-7.6
	c0.2-9.7,3-18.7,8.2-26.9c1.7-2.1,5.1-3.5,3.3-7.2c-3.1-3.6-7.1-5.8-11.4-7.8c-4.3,1.9-2,6.2-3.3,9.2c-0.1,1.4-1,2.4-1.9,3.4
	c-0.5,0.7-0.9,1.4-1.1,2.2c-0.1,1.7-0.6,3.3-1.6,4.6c-1.1,2.3-2.3,4.4-4.9,5.2C95.7,339.5,97.9,347.9,100.1,356.3L100.1,356.3z"/>
<path class="st11" d="M128.4,335.7c1.6,0.1,4.3-0.5,4.5,1.3c1.7,10,11.6,7.4,17.1,11.4c1.3,1,3.9,0.2,3.8,3v-0.1
	c6.3,1.6,12.7,1,19.1,1.6c4.6,0.4,7.6-2.4,8.5-7c0.9-4.7-1.5-7.2-5.8-8.5c-2.5-0.8-5-1.2-7.6-1c-11.3,0.9-22-1.5-32.4-5.6
	c-4.3-1.7-7.1-1-7.9,3.9C128,335.1,128.2,335.4,128.4,335.7z"/>
<path class="st12" d="M118,356.3c-3.1,3.7-4.5,8.2-5.2,12.9c1.1,6.2-3.8,11.5-2.7,18c0.6,3.5,1.1,5.4,5.2,5.4c3.7-0.1,5-1.1,5.5-5
	c1.3-9.2,3.2-18.3,2.4-27.7c-0.1-1-0.1-2.1,1.2-2.6c3.7-1.5,2.2-3.9,0.2-5.2c-2.5-1.6-3.8,0.1-4.3,2.6
	C120.2,355.8,119.1,356.1,118,356.3z"/>
<path class="st13" d="M122,320.3c-0.8,0.1-2.3,0.2-2.4,0.5c-2,9.3-10.6,17.3-5.4,27.9c4-0.5,13.6-9.4,14.1-12.9l0,0
	c-3.7-2.6-2.5-5.6-1.1-9C129.4,321.2,127.6,319.3,122,320.3z"/>
<path d="M100.1,356.3c0.7-8.2-2.2-16.8,3.2-24.4c0.7,0.2,1.1-0.1,1.1-0.9c-1.3-4.7-6.2-6.7-8.2-10.9c-4.5-3.9-1.8-9.7-3.6-14.3
	c-3.8-1.7-6.5,0.7-9.3,2.6c-10.1,7.1-21.6,4.8-28-5.8c-1.9-5.8-0.7-11.8-0.9-17.6c-0.1-2.9,0.6-6.1-3-7.5c-2.2,2.4-4.3,1.6-6.8,0.3
	c-5.4-2.8-11.2,0.5-11.2,6.6c0,3.4-2.5,7.8,2.4,10.2c3.2-0.7,1.2-2,0.6-3.6c-2-5.6-0.1-9,4.9-9.3c3.1-0.2,5.2,0.7,4.8,4.2
	c-0.8,7.5,3.3,14.3,2.9,21.9c-0.3,4.8,3.9,7.5,9.2,7.4c8.3-0.1,15.7,2.3,21.3,8.9c1.4,1.7,2.6,3.2,2.7,5.6c0,2.1-1.1,5.2,2.3,5.8
	c3.2,0.5,6.8,1.4,9-3.2c2.6,5.3-2.6,9.2-1.1,13.7c3.1,1.7,5.7,3.7,5.3,7.9C97.5,355.4,98.7,356.1,100.1,356.3z"/>
<path class="st4" d="M43.4,252.5c-0.4,2.7,1,3.8,2.4,4.8c3.1,2.1,4.5,4.2,1.9,7.8c-0.9,1.2-1.2,3.7,0.8,4.4c2.5,0.8,3.1-1.5,3.7-3.4
	C54.2,258.8,53.2,257.1,43.4,252.5z"/>
<path class="st4" d="M39.3,260.5c0.1,1.6,0.5,3.3,2,3.7c1.5,0.4,1.9-1.3,2.1-2.5c0.4-1.9-0.7-2.7-2.4-3
	C39.6,258.3,39.4,259.4,39.3,260.5z"/>
<path class="st4" d="M32.9,267.5c0.3,1.4,0.5,2.8,2.4,2.2c1.2-0.4,2.7-0.9,2.4-2.5c-0.3-1.3-1.7-1.9-3-1.9
	C33.2,265.4,32.9,266.4,32.9,267.5z"/>
<path class="st14" d="M65.3,208.3c6.8,0.6,12.8-1.6,18.1-5.5c3.5-2.6,7.5-3,11.6-2.9c6.4,0.2,10.3-2,12.2-8.6
	c1.3-4.7,4.4-8.8,10.5-8.7c6.6,0.1,13.5,4.2,15.9,9.1c1.7,3.5-0.5,10.7,7.6,8.9c6.8-1.5,13.2-8,13-14.6
	c-0.5-18.4-13.3-25.3-28.6-17.6c-16.8,8.5-33.2,9.9-50.8,8.2c-1.9-0.2-3.8,0-5.7,0c1,9-1.7,17.5-4.3,25.9
	C64.2,204.3,63.6,206.4,65.3,208.3z"/>
<path class="st15" d="M65.3,208.3c1.7-6.1,3-12.3,5.1-18.2c1.8-5,2.1-9.4-1.2-13.7c-6.6-0.6-13.2-0.5-19.4,2.3
	c-5.9,2.7-9.9,7.4-10.6,13.5c-0.7,6,4.8,9.1,9.2,12C53.4,207.3,59.1,209.1,65.3,208.3z"/>
<path class="st4" d="M87.3,257.4c-0.4,1.1-3.4,3.3,0.5,2.9c4.1-0.4,4,1.4,3.9,4.4c-0.4,7.9,3.5,11,11.2,9.1c2.5-0.6,4.8-1.6,7.2-2.3
	c4-1.3,7.8-1.2,11.6,0.7c3,1.5,6.1,1.5,9.3,0.7c3.7-1.2,6.6-3.1,6.7-7.5c0-3.5-0.6-6.9-3-9.6c-5.3-2.9-10.9,1.1-16.3-0.5
	c-1.9,0-3.6-0.4-4.5-2.4c-1.4-2-3.2-3.1-5.2-0.9c-1.6,1.7-3.3,2.6-5.5,2.7c-0.6,0.1-1.1,0.2-1.7,0.4c-2.5,0.8-5.7,1.6-7.3-0.1
	C89.5,249.7,88.7,253.8,87.3,257.4z"/>
<path class="st16" d="M120.3,191c-2.5,0.5-5.8,0.8-7.1,3.4c-3.8,7.8-10.9,9.7-18.4,11c-1.7,0.3-3.6,0.1-5,0.9
	c-3.1,1.8-5.7,4.7-4.5,8.2s4.4,1.1,6.6,0.5c8.5-2.1,17-4.5,25.8-1.7c1.3,0.4,2.5,0.2,3.3-1.1c2.3-3.3,5-6.4,6.9-10
	C130.6,197.6,125.9,191,120.3,191z"/>
<path class="st4" d="M118.1,235.9c1-1,1.6-2.3,0.1-3.2c-4.8-2.6-9.6-5.3-14.6-7.5c-1.9-0.8-4.1-2.2-3.6,2.7c0.4,3.4-5.6,5.1-8.7,7
	c-7.2,4.4-8,8.1-1.2,13.4c0.4,1,0.1,2.4,1.5,2.9c0.6,0,1.1-0.2,1.5-0.7c1.3-1.7,0.6-4.5,2.8-5.8c0.4-0.3,0.8-0.7,1.2-1.1
	c1.1-1.1,1.6-2.8,3.3-3.3c3.7,1.4,7,1.5,9.9-1.7C112.4,236.4,116,238,118.1,235.9z"/>
<path class="st17" d="M112.9,253.5c-0.3,5.1,2,5.1,5.4,2.7c5.1-1.3,10.2-2.9,15.3-0.2c1.8,2.8,1.8,6,2.5,9.1
	c1.9,5.2-1.2,6.2-5.4,6.3c-3.2,0.2-6.2,0.4-9.3-1.2c-3.9-2-7.8-1-11.4,1.3c5.1,0,9.5,1.4,13.1,5.1c1.2-1.2,2.6-1.2,4.1-0.7
	c5.8,2,9.8-0.3,12.6-5.4c2.3-2.9,0.8-6.1,1.1-9.2c-0.3-8.2-3.7-12.1-11.8-12.8c-4.2-0.4-6.1-2.4-5.1-6.2c0.7-2.8-1-5.5,0.2-8.1
	c0-0.4,0.1-0.7,0.1-1.1c-3.8,0.4-2.2,6.2-6.4,6.3c-0.2,0.2-0.5,0.3-0.7,0.5c-1.7,3.1,1.7,7.5-2.6,10
	C113.8,250.7,113.5,252.1,112.9,253.5z"/>
<path class="st18" d="M91.2,284.3c0.8,1.2,1.7,2.5,2.5,3.7c-0.7,5.6,0.5,11.2-0.1,16.7c0.6,2.6-1.8,7.3,2.1,7.5
	c3.9,0.3,3.3-4.5,3.9-7.5c0.5-2.7-0.1-6.6,4.5-6.2c4.4,0.4,6.2,3.2,5.8,7.5c-0.2,2.3-0.6,4.7-0.2,7c0.3,1.9,0,4.5,3.1,4.7
	c0.5-3.5,1-6.9,1.4-10.4c2.6-2.3,1.7-6.2,3.8-8.8c1.6-0.4,2.9-1.2,3.6-2.8c-1.7-0.1-3.5,0-3.6-2.4c-1.7-1.9-3.9-1.1-5.9-0.9
	c-4.8,0.4-8.3-1.6-11.8-4.8c-2.9-2.7-0.8-3.5,0.9-4.9C97.5,279.7,94.5,282.9,91.2,284.3z"/>
<path class="st19" d="M118.1,235.9c-4.3-0.1-8.5-0.6-11.8,3.7c-2.3,3-4.2-3.1-7-1.3c-2.1,2.2-0.3,4.3,0.4,6.2
	c1.5,4.4,0.8,6.6-4.4,5.6c-1.1-0.2-2.1,0.1-2.7,1.1l0,0c-2.1,2.9-0.1,4.2,2.2,5c2.5,0.8,5.2,1.2,7.7-0.3h-0.1
	c3.9-1.4,7.1-3.7,9.1-7.5c-1.6-5.7,2.4-7.3,6.4-8.9c0,0,0.2-0.2,0.3-0.2C118.2,238.1,118.1,237,118.1,235.9z"/>
<path class="st4" d="M101.4,282.9c-1.8,0.5-4.4-1.2-5.3,0.7c-1,2,1.3,3.6,2.6,5.3c5.3,6.7,12.1,6.6,19.5,4.6
	c1.8-2.6,4.3-4.8,4.7-8.1c0.1-1.1-0.2-2.2-1.2-2.7c-1.2-0.6-1.7,0-2.4,1.1c-4.4,6.5-10.2,6.8-15.3,1
	C103.3,283.9,102.2,283.5,101.4,282.9z"/>
<path class="st20" d="M140,270.4c-4.4,3.2-9,5.9-14.8,4.2c-1.2-0.3-1.9,0.6-1.8,1.8c6.6,0.7,13.5,2.9,19.4-2.3
	C141.2,273.4,140.1,272.3,140,270.4z"/>
<path class="st21" d="M102.5,255.8c-2.1-0.1-4.2-0.1-6.3-0.3c-2.7-0.2-4.4-1.3-3.7-4.4c-0.8-0.9-1.6-1.9-2.4-2.8
	c-0.7,3.1-4,5.4-2.8,9c1.9,0,2.5-4.9,5.9-0.9C94.7,258.2,99.6,258.6,102.5,255.8z"/>
<path class="st20" d="M102.8,277.8c-4-0.9-8-1.8-12-2.6C94.3,279.1,98.4,279.9,102.8,277.8z"/>
<path class="st22" d="M110.7,279.1c0,1.4,0.9,1.9,2,2c1.4,0.1,2.5-0.5,2.5-2.1c0-1.2-0.8-2.1-1.9-2.1
	C112.1,276.9,111,277.6,110.7,279.1z"/>
<path class="st23" d="M144,279.2c6.2-3.4,7.1-5.8,3.4-8.9C150.1,274.8,145.4,276.4,144,279.2z"/>
<path class="st20" d="M280.1,324.2c-2.5,3.3-4.7,8.9-7.2,9.7c-6,1.9-9.2,8.6-15.9,8.3c-0.3,0.1-0.5,0.2-0.8,0.2
	c-1.5,1.4-3.4,2-5,3.1c-2.9,2.4-6.2,2.9-10,2.7c-8.8-0.4-17.7,0.4-26.3-2.6c-0.9-0.2-1.8-0.3-2.7-0.3c-2.7-0.7-5.4-1.3-8.1-1.8
	c-4.4-0.9-8-2.8-9.7-7.3c-2.6-5-8.4-8.4-7.9-15c0.4-1.8,1.4-3.9-0.7-5.2c-1.7-1-3.2,0-4.5,1.2c-3.3,6.1-2.5,12.1,0.5,18
	c1.3,2.6,3.5,4.7,4,7.8c0.6,2.5,1.7,4.4,4.4,5.1c2.6-1,3.8,1.3,5.5,2.3c18.7,11.1,55.6,8.8,72.7-4.8
	C275.2,340.3,279.8,333.3,280.1,324.2z"/>
<path d="M190,348.2c-0.8-1.5-1.6-2.9-2.4-4.4c-0.6-0.9-1.1-1.8-1.5-2.8c-3.2-7.1-8.6-10-16.2-8.8c-1.2,0.2-2.5,0.3-3.8,0.2
	c-6.9,0-13.6-1-20.2-2.9c-4.7-1.3-8.4-3.2-10.6-8.1c-1.9-4.1-4.7-8.4-10.7-6.3c1.6,3-2.3,3.1-2.6,5.1c6,0.9,5.1,3.8,2.7,7.8
	c-3,4.8-1.9,6.9,3.8,7.7c1.2-3.6,2.8-4.8,7-2.9c8.8,4.1,18.3,6,28.2,5.6c3.9-0.1,7.8-0.9,11.8,1.4c2.6,1.5,5.4,1.7,4.4,5.7
	c-0.9,4-3.3,5.6-7.3,5.6c-6.2,0-12.4,0.1-18.6,0.2c10.2,3.3,20.7,3.8,31.3,2.7C188.8,353.7,190.5,351.9,190,348.2z"/>
<path class="st0" d="M263.5,320.3c-1.9-2.9-6.5-2.6-7.7-6.3c-0.1-1-0.6-1.7-1.4-2.2c-1.1-0.9-2.7-0.7-3.9-1.5c1-0.2,1.9-0.3,2.7-0.9
	c1.6-1.1,1.2-3.2,2.4-4.5c-2.4-5.3-5.7-1.2-7.4,0c-3.4,2.5-5.6,2.3-7.7-1.1c0.3-1.2,3-0.2,2.2-2.5c-1.6-1.2-3.8-2.5-5.1-0.7
	c-2.8,3.9-6.4,2.4-9.8,2.1c-2.3,0.4-4.7,0.5-7,0.2c-5.3-0.7-5.3-0.8-8.8,3.1c-4.1-4.6-5-4.5-9.3,1c-1.8-2.6-4.2-3.6-7.2-3.1
	c-0.9,0.3-1.6,0.9-1.9,1.8c-0.1,0.6-0.1,1.1,0.1,1.7c0.3,1.6,4.6,1.9,1.6,4.6c-0.3,0.5-0.5,1.1-0.6,1.6c0.3,2.6,1.8,3.8,4.4,3.8
	c1.9-0.3,3.4-1.3,5-2.2c2.8-3.3,6.6,0.9,9.5-1.3c1.2-0.9,0.4,0.1,0.3,0.3c-1.8,3.6,0.5,5.2,3.3,6.2c1.9,0.6,0.9,0.6,0.2,1.3
	c-1.5,1.4-1,3.1,0.1,4.6c2.4,2.2,6.4,3.6,4.2,8.2c0.4,3.2,2.5,5.1,5,6.8c0.4,0,0.8-0.2,1.2-0.2c1.3-0.1,2-4.5,3.9-0.5
	c2.1,0.4,3.6-0.7,5.2-1.9c2.5-2.7,6.7-1.7,9.3-4.1c0.8-1.2,0.8-2.5,0.3-3.8c-0.8-1.5-2.3-2.2-3.8-2.8c-4-1.6-9.3,2.9-12.5-2.8
	c-0.3-0.5-0.7-0.9-1.2-1.3c-1.5-1.7-3.5-3.1-4.3-5.4c1-1,1.3,0.7,1.8,0.5c6.7-1.6,11,2.3,15,6.8c2.3,0.1,2.4-1.8,2.9-3.2
	c0.9-2.6,2.7-2.7,4.9-1.7c2.7,0.2,3.8,3.5,6.6,3.3c2.5,0,5-0.1,7.5-0.1c2.4,0,4.1-0.6,4-3.4C265.9,320.6,264.7,320.4,263.5,320.3z"
	/>
<path class="st24" d="M235,337c-0.8,1.5-2.3,2.1-3.8,2.6c-0.4,0.6-0.4,1.2,0.1,1.8c0.7,0.7,1.7,1.1,2.7,1.4c5.8,2.3,11.2,1,16.6-1.4
	c1.9-0.6,3.8-1.1,5.1-2.8c6.8,0.9,6.7-6.2,10.1-9.1c1-0.9,0.1-4.2-3.1-4c-2.3,0.1-4.7,0-7-0.1c-2.2-2-4.3-1.1-6.5,0
	c-3.3,3.6,1.1,3.7,2.4,5.2c1.2,1.2,2.1,2.4-0.3,3.3c-3.4,0.4-5.5,5.5-9.8,2.5C239.2,336.1,237.1,336.1,235,337z"/>
<path class="st25" d="M255.6,338.7c-1.9-0.6-3.6-0.3-5.1,0.9c-0.9,1.6-4.5,1.4-3.6,3.6c1,2.8,4,1.7,6.2,1.2c1.5-0.3,2.7-1.3,3.8-2.3
	l0,0C256.5,341,256.1,339.9,255.6,338.7z"/>
<path class="st26" d="M249.2,326.7c2.2-0.4,4.3-0.8,6.5-1.2c0-0.4,0-0.9,0-1.3c-2.1-1.4-2.4-5.6-6.4-3.9
	C248.1,322.4,248.2,324.6,249.2,326.7z"/>
<path class="st7" d="M195.2,304.8c1,0.3,2.2,0.4,3,1c3.1,2.3,6.1,5.1,8-1.1c0.5-1.6,1.6-1,2.5-0.7c1.2,0.4,1.5,1,0.5,2.3
	c-1.2,1.5-0.1,3,1.6,3.2c1.4,0.2,2.6-0.4,3.4-2.1c0.8-1.6,0.9-7.7,5.3-1.9c0.6,0.8,6-0.1,8.2-2.9c-2.2-1.5-3.8-3.5-7.3-2.4
	c-2.6,0.8-1.1-1.7-0.9-2.9c-2.5-0.8-4.8,0.7-7.2,0.9c-2.5,0.1,0.8-4.5-2.8-3.5c0.4,5.6-2.6,5.6-6.6,3.9c-1,0.5-2.2,0.2-3.1,0.8
	C198,301.1,195,301.6,195.2,304.8z"/>
<path class="st8" d="M223.5,288.3c-1-9.6-0.2-19.3,0-28.9c-1.6,8.8-5.2,17.3-2.8,26.3c-0.8,1.4-0.9,2.7,0.4,3.9
	C221.9,289.1,222.7,288.7,223.5,288.3z"/>
<path class="st27" d="M242.6,301.3c-0.7,0.8-1.4,1.6-2.2,2.5c3.3,1.1,6.7,2.2,7.6-3C246.2,300,244.4,301,242.6,301.3z"/>
<path class="st27" d="M254.4,312.2c0.5,0.6,0.9,1.2,1.4,1.8c6.6,0.9,4.7-3.9,5-7.3c-0.8-0.1-1.5-0.2-2.3-0.2
	c-0.8,0.4-1.3,0.9-1.8,1.6C256.3,309.6,254.2,310.3,254.4,312.2z"/>
<path class="st26" d="M258.2,308.7c0.1-0.8,0.2-1.6,0.3-2.3c-1.2-0.1-2.4-0.3-2.9-1.6c-4.2-1.1-2.2,2.3-2.9,3.8
	C254.5,310.7,256.4,309.7,258.2,308.7z"/>
<path class="st4" d="M112.9,317.8c-2.9-3.7-1-7.8-0.6-11.6c0.7-6.2-5.7-12.5-11.4-10.7c-3.1,1-2.8,4.5-3.3,7.1
	c-0.6,2.9-0.7,5.9-1,8.9c0,0.3-0.6,0.5-1,0.7c-2-2.2-0.5-4.9-0.9-7.3c-0.8-0.8-1.5-0.8-2.2,0c0,0.5-0.1,1-0.1,1.5
	c-0.7,5.3-2.9,11,2.8,15.1c1.2,1.2,2.6,1.1,4.1,0.8c4.2,1.6,6.9-4.5,11.2-2.1C111.8,320,112.6,319.2,112.9,317.8z"/>
<path class="st28" d="M110.4,320.3c-2.1-2.5-4-6.1-6.7-0.4c-1,2.2-3.1-0.3-4.5,0.7c-1.6,2.7,0.5,4.2,2,6c1.3,1.5,3.6,2.6,2.7,5.2
	c-0.2-0.1-0.4-0.1-0.6,0c5.7,2.4,1.8-4.6,4.7-4.8c-0.8-2.1-0.3-3.9,1.1-5.5C109.5,321.2,110,320.7,110.4,320.3z"/>
<path class="st29" d="M109.1,321.6c-1.9,0.6-4.5,0.7-4.5,3.3c0,1.6,1.8,2.1,3.4,2.1C109.7,325.5,110.6,323.8,109.1,321.6z"/>
<path class="st15" d="M103.9,331.8c2.9-2,0.6-3.7-0.5-5.1c-1.5-2-3.7-3.4-4.1-6.1c-1.4,0.3-2.8,0.6-4.2,0.9
	C97,325.8,101.4,328.1,103.9,331.8z"/>
<path class="st8" d="M201.8,280.5c-0.2-3.7,5.1-7.5,0-11.2c-1.3,3.8-3.5,7.5-1.1,11.7c0,0.1,0.4,0,0.6-0.1
	C201.5,280.8,201.6,280.6,201.8,280.5z"/>
<path class="st8" d="M198.8,292c-1.1,2.9,0.1,5.3,1.6,7.7c1.2,0.6,2.5,1.4,2.4-1c-2.3-3.4-3.4-7-1-11.4
	C198.7,288.2,199.8,290.7,198.8,292z"/>
<path class="st30" d="M210.6,290.9c-0.4-3,2.3-5.6,1.2-8.7c-2.1,1.5-4.2,3-4,6c0.6,1.7-0.4,3.8,1.3,5.3
	C210.5,293.1,210.1,291.7,210.6,290.9z"/>
<path class="st31" d="M84.6,196.5c5.1,1.4,9.6-2.4,13.7,1.3c0.3,0.3,1.9,0,2.3-0.5c3.2-3.5,2.8-8.2,2.7-12.1c-0.1-3-4.4-3.4-7.4-3.4
	c-1.2,0-2.4,0.5-3.7,0.2c-2.5-0.5-4.7-2.7-7.5,0.4c-3.5,3.9-4.7,8.9-5.5,13.3C78.5,199.1,83.3,195.6,84.6,196.5z"/>
<path class="st32" d="M133.7,255.9c-3.8-4.5-10.6-4.4-15.3,0.2C123.5,259.1,128.6,255.7,133.7,255.9z"/>
<path class="st15" d="M110.5,248.3c-2.5,2.7-6.3,4-8,7.5c3.3,0.6,6.1,0.4,7.9-3.3c0.9-1.9,1.9,0,2.6,0.9c0.9-0.8,1.7-1.7,2.6-2.5
	c1-1.7-0.6-2.3-1.5-3.1c-0.5-0.3-1-0.4-1.5-0.5C111.7,247.4,111,247.6,110.5,248.3z"/>
<path class="st27" d="M130.9,271.3c3.2,3.1,4.7-0.2,6.4-1.9c1.9-1.9,0.8-3.3-1.1-4.4C136,268.5,133.4,269.9,130.9,271.3z"/>
<path class="st14" d="M92.6,251.1c3,0.4,6.6,3,8.9-0.5c2.2-3.3,0.7-6.9-1.4-10.1c-0.4-0.7-0.5-1.6-0.8-2.4c-2.3,0.9-1.8,3.5-3.1,4.9
	c0,0.6,0.7,1.1,0.2,1.7c-0.5-0.4-0.9-0.9-1.3-1.4C91.2,244.9,92.5,248.2,92.6,251.1z"/>
<path class="st33" d="M95.1,243.3c-0.6,2-2.1,4.3,1.2,5.2c1.5,0.4,3.1,0.2,3.6-1.8c0.7-3.1-1.3-3.6-3.7-3.8
	C95.8,243.1,95.5,243.3,95.1,243.3z"/>
<path class="st14" d="M110.5,248.3c0.9-0.1,1.7-0.1,2.6-0.2c0.2-0.3,0.4-0.6,0.4-0.8c-0.1,0.2-0.2,0.4-0.4,0.8
	c0.8,0.9,1.6,1.9,2.5,2.8c6.9-2.6,2.2-7.6,2.4-11.5C109.2,239,108.5,239.8,110.5,248.3z"/>
<path class="st24" d="M234.2,341.1c-0.9-0.1-1.9-0.2-2.8-0.2c-1.7,0.2-3.4,0.9-5-0.2c-0.3-2.7-4.5-3-3.7-6.3
	c-0.1-0.3-0.3-0.5-0.4-0.8c-0.7-0.7-1.5-1-2.4-1c-2.2,0.5-4.1,2.5-6.6,1.2c-2.7-1-5.4-1.4-8.1-0.6c-0.6,0.2-1.1,0.6-1.6,1
	c-2.7,5.6,4,3.7,5,6.3c3.7,0.9,1.5,4.9,3.5,6.7c0.8,0,1.6,0.1,2.4,0.1c4.8,0.5,9.7-0.2,14.3,1.5
	C234.3,348.9,235.9,346.1,234.2,341.1z"/>
<path class="st5" d="M212.1,347.2c-0.7-2.6,1.9-3.3,3-4.7c-1.5-2.2-4.1-1.6-5.8-2.8c-5.8-0.7-10.2-6.6-16.7-4.3
	c-0.5,0.6-0.5,1.1,0.1,1.6c1.5,6.8,7.4,7.5,12.6,9C207.5,346.7,209.8,346.9,212.1,347.2z"/>
<path class="st5" d="M234.2,341.1c-2.3,1.7-0.1,7.3-5.5,6.2c0,1.3,0.6,2,1.9,1.9c7.1-0.9,14.7,0.9,21.4-3.1c2.6-0.2,4.8-0.8,5-4
	c-2.9-0.1-5.5,1.8-8.7,1c0.3-1.5,2.8-1.7,2.3-3.6C245.3,342.2,239.9,342.8,234.2,341.1z"/>
<path class="st0" d="M182.2,316.5c0,0.4,0.1,0.9,0.1,1.3c1-0.2,2.6-0.9,2.9-0.5c1.6,1.9-1.4,2.7-1.4,4.3c2.8,1.3,2.1,4.9,4.3,6.6
	c2.1,1.5,4.2,2.8,6.9,1.9c0.9-0.5,1.2-1.4,1.5-2.3c-0.1-1.9,1.6-4.2-1.2-5.6c-2.1-0.6-4.8-0.9-5.1-3.7c-0.3-3.4,3.6-3.5,5.1-5.6
	l-0.1,0.1c1.7-2.2,0.3-3.6-1.2-5c-0.1-0.5-0.1-1-0.2-1.5C189.1,308.6,185.6,312.5,182.2,316.5z"/>
<path class="st25" d="M251.9,346.2c-5.4,0.7-10.7,1.3-16.1,2c-2.5,0.3-5,1.2-7.1-0.8c-4.7-1-9.4-2.1-14.2,0c6,2,12.1,3.5,18.6,2.6
	c5.9-0.8,12.1,1.7,17.9-1.4C252.4,347.9,252.2,347.2,251.9,346.2z"/>
<path class="st0" d="M195.1,329.4c-5.5-0.1-7.1-6-11.4-7.9c0.9,6.4,5.7,10.5,9,15.5c0.1-0.5,0.1-1,0.2-1.5
	C197.4,332.5,197.5,332.5,195.1,329.4z"/>
<path class="st0" d="M195.4,322.9c0.9,1.4-2.9,2.8,0,4.1c1.1,1.5,3.8,1.5,3.4,4.6c-0.6,4.9,2.2,4.5,5.4,2.8v-0.2
	c7.2-1,7.5-1.5,4.9-7.1c1.6,0.9,2.2,3.1,4.5,2.9c0.6-0.1,1.1-0.4,1.6-0.8c2.3-9.6-1.2-9.9-10.7-7.4c0.1-0.1,0.4-0.2,0.9-0.4
	c2.4-1.1,7,0.8,6.8-3.7c-0.2-4-4.5-2.8-7.1-3.7c-0.6-0.2-1.2-0.3-1.9-0.1c-1.3,0.7-2.7,1.4-4,2.2c-0.9,1-1.2,2.3-2.9,2.8
	C193.9,319.4,193.7,321.1,195.4,322.9z"/>
<path class="st7" d="M228.6,325.4c2.3,8.1,8.3,3.5,12.9,3.8c1.1-1.3,1.4-2.6,0.2-4c-3-2.5-2.2-10-9.3-7.2c-0.1,0-0.7-0.6-0.6-0.9
	c0.4-1.5,0.9-3.2-1.5-3.1c-2.4,0.1-0.9,2.9-2.7,4.5c-0.5-2.1,0-5.8-3.6-4.3c-2.9,1.2-2.1,4-1,6C224.3,322.5,225.4,325.3,228.6,325.4
	c1.5-0.8,2.7-2,5.7-2.4C231.9,324.6,229.9,324.2,228.6,325.4z"/>
<path class="st7" d="M203.2,313.9c1.4,1.8,3.2,2.6,5.5,2.6c1,0,2.3-0.3,2.3,1.3c-0.1,1.1-0.8,2.1-2,2.2c-2.7,0.2-5.3,0.7-7.5,2.4
	c0.9,1.9,2,1.4,3.3,0.9c8.3-3.6,9.5-2.8,9.7,6c0.5,0.5,1.1,0.7,1.8,0.6c2-0.8,3.7-1.7,2.2-4.3c-1.1-0.9-1.8-3-0.7-2.9
	c5.4,0.1,2.4-3.3,3.3-5.9c-4,2.8-7.9,1.4-6.7-1.5c0.8-1.8,2.7-3.2,2.3-5.8c-3.2,0.7-5.2,6-9.4,2
	C206.6,310.9,204.2,312.4,203.2,313.9z"/>
<path class="st7" d="M241.7,325.2c-0.1,1.3-0.1,2.7-0.2,4c1.3,0.5,2.7,1.1,4,1.6c3,1,5.7,1,7.8-1.8c-0.6-2.1-4,0.6-4.2-2.4
	c2.2-2.1,1.3-4.2,0.1-6.3c-0.3-1.4,0.2-4.3-2.3-2.9c-1.8,1-5.7,0.5-5,4.4C242.1,323,243.2,324.2,241.7,325.2z"/>
<path class="st24" d="M195.4,322.9c0.3-1.1-1.3-3.3,1.5-2.9c4.5,0.7,1.9-2.5,2.2-4c-2.8,0.5-3.9-0.8-3.9-3.4c-4.3-0.3-8.1,1-7.5,5.9
	C188.3,322.1,191.4,324,195.4,322.9z"/>
<path class="st27" d="M243.8,312.6c-5.2,0.2-8.4-1.1-11.9-3.8c-3.8-2.9-8.9-2.3-11.7,3.1c1.6,1.4,3.1,0.2,4.7,0c3-0.6,6-1.4,8.8,1.5
	C236.3,315.9,239.8,315.6,243.8,312.6z"/>
<path class="st34" d="M253.3,329.1c-2.6,0.6-5.6-0.6-7.8,1.8c0,1.2,0,2.4-0.1,3.5c0.4,0.5,0.8,0.8,1.4,1c1.7,0,3.4-0.7,5.1,0.2
	c1.3-0.2,3.1,1,3.6-1.1C256,332.2,255.5,330.2,253.3,329.1z"/>
<path class="st7" d="M258.2,308.7c-1.8-1.2-3.7,0.2-5.5-0.1c-2.2,0.8-5.3-1.9-6.6,2.1c2.5,1.9,5.4,1.7,8.3,1.5
	C255.5,310.8,258.4,311.5,258.2,308.7z"/>
<path class="st0" d="M218.3,325.5c0.3,2.1-2,2.4-2.6,3.9c1.3,2.6,5.6,1.6,6.1,5.1c0.3,0,0.5,0,0.8-0.1
	C226.2,328.9,222.2,327.3,218.3,325.5z"/>
<path class="st26" d="M194.1,307.7c0.4,1.7,0.8,3.3,1.2,5c1.7-0.2,4.3,0.5,3.8-2.6C198.6,307.4,196.2,307.5,194.1,307.7z"/>
<path class="st26" d="M246.4,334.7c-0.3,0-0.7-0.1-1-0.3c-3.7,0.2-7.4,0.1-10.4,2.7c2.4-0.2,4.7,0.3,6.9,1.1
	C243.4,337,246.7,338.2,246.4,334.7z"/>
<path class="st27" d="M226.4,340.7c1.5,3.2,3.1,4,5,0.2c0-0.4-0.1-0.9-0.1-1.3C228.9,336.7,228,340.3,226.4,340.7z"/>
<path class="st27" d="M246.4,334.7c-1,1.8-5.3-0.6-4.5,3.5c2.5,2.1,5.2,2,6.6-0.9c0.9-1.9,2.3-1.3,3.4-1.8
	C250.3,333.9,248.3,334.4,246.4,334.7z"/>
<path class="st35" d="M113.1,248.1c2.5,0.3,4.4-0.1,3.2-3.2c-0.5-1.3-1.6-2.9-3.2-1.9C110.5,244.5,111.7,246.4,113.1,248.1
	L113.1,248.1z"/>
<path class="st27" d="M204.2,334.4c-1.5,0-3,0.5-4.4-0.6c-0.3-2.3,4.9-1.8,2.6-5.2c-1.9-2.7-4.5-1.9-7-1.6c-0.1,0.8-0.2,1.6-0.3,2.4
	c3,3.4-3.3,3.4-2.2,6.1c5.6,0.8,10.3,5.5,16.4,4.2c-0.2-2.1-1.5-2.7-3.4-2.6C204,337.1,203.5,336.2,204.2,334.4z"/>
<path class="st26" d="M213.4,329.4c-1.3-1.1-2.4-2.3-3.8-3.2c-1.3-0.8-3.2-1.3-3.6,0.6c-0.7,2.7,1.7,0.1,2.3,1
	c3.6,5.3-1.9,4.8-4.1,6.3c3,0.5,6.3-0.4,9,1.6c1.2-0.9,2.1-2,2-3.6C215.1,331,214.2,330.3,213.4,329.4z"/>
<path class="st26" d="M213.4,329.4c-0.1,1.1,0,2.2,1.2,2.8c1.5,1.7,3.3,1.1,5.2,1c0.7,0.4,1.4,0.9,2.1,1.3c1.1-5.5-2.9-4.8-6.1-5.1
	c-0.5-0.1-0.9-0.1-1.4-0.2C214.1,329.3,213.7,329.3,213.4,329.4z"/>
<path class="st36" d="M219.8,333.2c-1.5-1.7-3.3-1.3-5.2-1c-0.5,1.2-1,2.4-1.4,3.6C216.7,338.2,218.3,335.8,219.8,333.2z"/>
<path class="st27" d="M228.6,325.4c1.2,0.2,2.5,0.4,3.7,0.7c1.9,0.4,4,0.9,4.8-1.5c0.6-1.7-0.8-3.4-2.3-4c-2-0.8-4.2-0.7-5,2
	C229.6,323.6,229.1,324.5,228.6,325.4C228.7,325.5,228.6,325.4,228.6,325.4z"/>
<g>
	<path class="st37" d="M504.9,223.8c-0.8-0.6-1.1-1.6-1.1-3.1c0-1.4,0.5-5.8,1.5-13c1-7.2,1.5-12.4,1.5-15.5c0-3.1-0.2-5.1-0.6-6
		c3.1,0.2,5.1,1.4,6.1,3.6c2.2-1.2,4.7-1.8,7.5-1.8s5.1,0.8,6.8,2.4c1.8,1.6,2.7,3.4,2.7,5.5c0,2.1-0.7,4.2-2.1,6.3
		c-1.4,2.1-3.6,3.7-6.4,4.7l0.6,1.8c1.1,3.4,2.7,6.8,4.7,10.1c2.1,3.3,3.8,5.6,5.1,6.8c-1.1,0.3-2.2,0.5-3.4,0.5s-2.2-0.4-3.4-1.1
		c-1.1-0.7-2.1-1.5-2.8-2.3c-0.7-0.9-1.6-2.2-2.5-4.1s-1.6-3.3-2-4.3s-0.8-2.2-1.3-3.4s-0.7-1.9-0.8-2c0-0.1-0.1-0.2-0.1-0.3
		c-0.1-0.1-0.1-0.3-0.1-0.4c-0.7,0-1.3,0-2,0l-0.1-2.1c3.9-0.2,6.7-1.5,8.6-4.1c1-1.5,1.5-2.9,1.5-4.5c0-0.6-0.1-1.1-0.2-1.7
		c-0.5-2-1.7-3.2-3.7-3.7c-0.5-0.2-1.3-0.2-2.3-0.2s-2.3,0.3-3.9,1c0,1.2-0.4,4.9-1.3,11.3c-0.9,6.4-1.3,11.7-1.3,16
		c0,1.9,0.1,3.4,0.3,4.5c-1,0.1-1.6,0.1-1.9,0.1C506.9,224.7,505.6,224.4,504.9,223.8z"/>
	<path class="st37" d="M544.4,212.7c-1.5,0-2.9-0.2-4.3-0.5c0,0.3,0,0.8,0,1.4c0,2.5,0.5,4.4,1.4,5.7s2.1,1.9,3.4,1.9
		c1.3,0,2.6-0.4,3.7-1.2c1.2-0.8,2.2-1.9,3.1-3.3c1.1,0.2,1.6,0.8,1.6,1.7c-2.7,4.1-6.1,6.2-10.3,6.2c-2.6,0-4.8-1-6.7-2.9
		c-1.9-1.9-2.9-4.7-2.9-8.2c0-2.6,0.5-5.1,1.5-7.5c1-2.4,2.6-4.3,4.8-6c2.2-1.6,4.6-2.4,7.3-2.4s4.6,0.6,5.9,1.8
		c1.2,1.2,1.9,2.8,1.9,4.8c0,2.9-1,5-3,6.4C549.7,212,547.3,212.7,544.4,212.7z M546.3,200.4c-1.6,0-2.9,1-3.9,2.9
		c-1.1,1.9-1.8,4.2-2.1,7h0.7c2.6,0,4.6-0.7,5.9-2.1c1.3-1.4,1.9-3,1.9-4.9c0-0.8-0.2-1.5-0.6-2S547.1,200.4,546.3,200.4z"/>
	<path class="st37" d="M569.6,200.3c-0.9,0-1.6,0.3-2.3,0.8c-0.7,0.6-1,1.4-1,2.4s0.4,2,1.1,2.9c0.7,0.9,1.6,1.7,2.6,2.4
		s2.1,1.4,3.1,2.1c1,0.7,2,1.6,2.8,2.6s1.2,2.2,1.3,3.5c0,2.2-0.9,4-2.8,5.5s-4.2,2.2-7,2.2s-5-0.6-6.6-1.7s-2.4-2.4-2.4-3.9
		s0.4-2.6,1.3-3.5c0.9-0.9,2-1.3,3.4-1.3c0.7,0,1.4,0.1,2,0.4c-1,1-1.5,2.1-1.5,3.3s0.3,2.1,1,2.8s1.5,1,2.6,1s2-0.3,2.8-0.8
		c0.7-0.6,1.1-1.3,1.1-2.2c0-0.9-0.3-1.7-0.8-2.4c-0.5-0.7-1.2-1.3-1.9-1.8c-0.8-0.5-1.6-1.1-2.5-1.8s-1.8-1.3-2.5-2
		c-0.8-0.7-1.4-1.5-1.9-2.6c-0.5-1-0.8-2.2-0.8-3.4c0-2.2,0.9-3.9,2.7-5.3s4-2.1,6.7-2.1s4.6,0.5,5.8,1.5s1.8,2.2,1.8,3.6
		c0,1.4-0.4,2.6-1.3,3.5c-0.9,1-2,1.5-3.4,1.5c-0.7,0-1.4-0.1-2.3-0.4c0.7-0.6,1.2-1.2,1.6-2c0.4-0.7,0.5-1.5,0.5-2.2
		c0-0.7-0.3-1.3-0.9-1.8C571.2,200.5,570.4,200.3,569.6,200.3z"/>
	<path class="st37" d="M592.1,202.5c-0.2,1.1-0.5,3-1,5.7c-1,5.7-1.5,10-1.5,12.8s0.2,4.6,0.6,5.6c-2.3-0.6-4-1.5-4.8-2.8
		c-0.9-1.3-1.3-3-1.3-5.4c0-2,0.3-4.8,1-8.4c0.6-3.5,1-5.9,1.2-7.2c-1.6,0.3-3.3,0.8-5.1,1.6c-0.1-0.7-0.1-1.2-0.1-1.5
		c0-1.6,0.5-2.7,1.5-3.3s2.4-0.9,4.2-0.9c0.2-2.3,0.3-3.9,0.3-4.9s0-1.8,0-2.5s0-1.2,0-1.5c2,0.2,3.5,0.8,4.4,1.8s1.4,2.4,1.4,4.2
		c0,0.7-0.1,1.7-0.2,3.1c2.6-0.1,4.4-0.6,5.6-1.5c0.1,0.6,0.1,1.1,0.1,1.4c0,1.5-0.3,2.5-0.8,3c-0.5,0.6-1.4,0.8-2.6,0.8
		C593.7,202.5,592.7,202.5,592.1,202.5z"/>
	<path class="st37" d="M605.6,215.3c0,1.4,0.3,2.6,0.8,3.5s1.3,1.3,2.3,1.3c1.4,0,2.8-0.8,4.1-2.5s2.3-3.8,3.1-6.4
		c0.8-2.6,1.2-5.1,1.2-7.5c0-2.4-0.1-4.3-0.3-5.7c0.9-0.1,1.5-0.1,1.9-0.1c1.6,0,2.7,0.3,3.5,0.9c0.8,0.6,1.2,1.6,1.2,3.1
		c0,0.6-0.4,2.9-1.1,7c-0.7,4.1-1.1,7.4-1.1,9.9s0.5,4.7,1.4,6.6c-2.3-0.4-4-1.2-5-2.5c-1.1-1.3-1.6-3.2-1.6-5.6
		c0-0.4,0.1-1.2,0.2-2.5c-0.8,2.9-2.3,5.2-4.4,7c-2.1,1.8-4.2,2.6-6.2,2.6s-3.6-0.8-4.9-2.3c-1.2-1.5-1.8-3.6-1.8-6.4s0.5-5.4,1.5-8
		s2.5-4.8,4.4-6.6c2-1.8,4.2-2.7,6.6-2.7c1.4,0,2.8,0.3,4.3,1c-3.1,1.1-5.5,3.2-7.3,6.5C606.5,209.1,605.6,212.2,605.6,215.3z"/>
	<path class="st37" d="M644,197.6c0.9-0.1,1.5-0.1,1.9-0.1c1.6,0,2.8,0.3,3.6,0.9c0.8,0.6,1.2,1.6,1.2,3.2c0,0.5-0.3,2.6-0.9,6.4
		c-0.6,3.8-0.9,7-0.9,9.7c0,2.7,0.3,5.1,0.9,7.2c-2.3-0.7-3.9-1.8-4.7-3.1c-0.9-1.3-1.3-3-1.3-5c0-0.8,0.2-2.5,0.5-5.2
		c-0.9,3.5-2.4,6.4-4.3,8.7c-1.9,2.4-3.7,3.5-5.4,3.5c-3.5,0-5.2-2.5-5.2-7.6c0-1.7,0.3-4,0.8-7s0.8-5.3,0.8-6.8s-0.2-3.1-0.6-4.7
		c2.5,0,4.4,0.3,5.5,1c1.1,0.7,1.7,2,1.7,3.9c0,1-0.3,3.1-1,6.2c-0.6,3.1-1,5.4-1,6.9c0,2.2,0.6,3.4,1.8,3.4c0.6,0,1.3-0.4,2.1-1.3
		c0.8-0.8,1.5-1.9,2.3-3.3c0.7-1.4,1.3-3.1,1.8-5.2c0.5-2.1,0.8-4.2,0.8-6.3C644.3,200.9,644.2,199.1,644,197.6z"/>
	<path class="st37" d="M663.6,209.1c1.1-4,2.4-6.9,3.9-8.7c1.5-1.9,3-2.8,4.3-2.8s2.3,0.5,3,1.5s1,2.3,1,3.8s-0.5,3-1.4,4.3
		s-2.2,2-3.8,2c-0.4,0-0.9-0.1-1.5-0.4c0.9-1.2,1.4-2.6,1.4-4.3c0-1-0.4-1.5-1.2-1.5c-0.6,0-1.2,0.4-1.9,1.2s-1.3,1.9-1.9,3.3
		c-0.6,1.4-1.1,3.2-1.5,5.4c-0.4,2.2-0.6,4.6-0.6,7c0,0.3,0.1,1.6,0.2,3.9c-1,0.1-1.6,0.1-1.9,0.1c-1.7,0-3-0.3-3.7-0.9
		c-0.8-0.6-1.1-1.6-1.1-3c0-0.6,0.3-2.9,1-7c0.6-4.1,1-7.3,1-9.7c0-2.4-0.3-4.6-0.8-6.7c2.2,0.7,3.8,1.7,4.7,3s1.3,2.8,1.3,4.5
		C664,205.9,663.9,207.5,663.6,209.1z"/>
	<path class="st37" d="M683.3,215.3c0,1.4,0.3,2.6,0.8,3.5s1.3,1.3,2.3,1.3c1.4,0,2.8-0.8,4.1-2.5s2.3-3.8,3.1-6.4
		c0.8-2.6,1.2-5.1,1.2-7.5c0-2.4-0.1-4.3-0.3-5.7c0.9-0.1,1.5-0.1,1.9-0.1c1.6,0,2.7,0.3,3.5,0.9c0.8,0.6,1.2,1.6,1.2,3.1
		c0,0.6-0.4,2.9-1.1,7c-0.7,4.1-1.1,7.4-1.1,9.9s0.5,4.7,1.4,6.6c-2.3-0.4-4-1.2-5-2.5c-1.1-1.3-1.6-3.2-1.6-5.6
		c0-0.4,0.1-1.2,0.2-2.5c-0.8,2.9-2.3,5.2-4.4,7c-2.1,1.8-4.2,2.6-6.2,2.6s-3.6-0.8-4.9-2.3c-1.2-1.5-1.8-3.6-1.8-6.4s0.5-5.4,1.5-8
		s2.5-4.8,4.4-6.6c2-1.8,4.2-2.7,6.6-2.7c1.4,0,2.8,0.3,4.3,1c-3.1,1.1-5.5,3.2-7.3,6.5C684.2,209.1,683.3,212.2,683.3,215.3z"/>
	<path class="st37" d="M724.2,197.6c1.8,0,3.1,0.6,3.9,1.7c0.8,1.1,1.2,2.6,1.2,4.5c0,1.9-0.3,4.6-0.9,8c-0.6,3.4-0.9,5.9-0.9,7.5
		c0,1.6,0.2,2.7,0.6,3.4c0.4,0.7,1.1,1.3,2,1.8c-0.4,0-1,0-1.7,0c-2.6,0-4.4-0.4-5.4-1.2c-1-0.8-1.6-2.2-1.6-4.1
		c0-1.1,0.3-3.3,0.9-6.6c0.6-3.3,0.9-5.7,0.9-7.3c0-2-0.6-3-1.8-3c-0.7,0-1.5,0.4-2.4,1.2s-1.7,1.9-2.6,3.4
		c-0.8,1.4-1.5,3.2-2.1,5.4c-0.5,2.2-0.8,4.4-0.8,6.6c0,2.2,0.1,3.8,0.3,4.9c-1,0.1-1.6,0.1-1.9,0.1c-1.7,0-3-0.3-3.7-0.9
		c-0.8-0.6-1.1-1.6-1.1-3c0-0.6,0.3-2.9,1-7c0.6-4.1,1-7.3,1-9.7c0-2.4-0.3-4.6-0.8-6.7c2.2,0.7,3.8,1.7,4.7,3
		c0.9,1.3,1.3,2.8,1.3,4.4c0,1.7-0.2,3.6-0.5,5.8c1-3.4,2.6-6.3,4.7-8.7C720.4,198.8,722.4,197.6,724.2,197.6z"/>
	<path class="st37" d="M744.9,202.5c-0.2,1.1-0.5,3-1,5.7c-1,5.7-1.5,10-1.5,12.8s0.2,4.6,0.6,5.6c-2.3-0.6-4-1.5-4.8-2.8
		c-0.9-1.3-1.3-3-1.3-5.4c0-2,0.3-4.8,1-8.4c0.6-3.5,1-5.9,1.2-7.2c-1.6,0.3-3.3,0.8-5.1,1.6c-0.1-0.7-0.1-1.2-0.1-1.5
		c0-1.6,0.5-2.7,1.5-3.3s2.4-0.9,4.2-0.9c0.2-2.3,0.3-3.9,0.3-4.9s0-1.8,0-2.5s0-1.2,0-1.5c2,0.2,3.5,0.8,4.4,1.8s1.4,2.4,1.4,4.2
		c0,0.7-0.1,1.7-0.2,3.1c2.6-0.1,4.4-0.6,5.6-1.5c0.1,0.6,0.1,1.1,0.1,1.4c0,1.5-0.3,2.5-0.8,3c-0.5,0.6-1.4,0.8-2.6,0.8
		C746.5,202.5,745.5,202.5,744.9,202.5z"/>
	<path class="st37" d="M510.2,247.7c0,2.3,1,4.1,2.8,5.4c1.9,1.2,4.6,1.8,8.1,1.8s6.9-0.7,10.3-2.1c0,2.8-0.5,4.6-1.6,5.3
		c-0.5,0.3-1.1,0.5-1.9,0.5h-3c-0.1,0.9-0.4,2.4-0.7,4.8c-0.4,2.3-0.7,4.2-0.9,5.7c-0.5,4-0.8,7.3-0.8,9.8s0.4,4.6,1.1,6.3
		c-2.4-0.6-4.1-1.6-4.9-2.9c-0.9-1.3-1.3-3.2-1.3-5.7c0-1.3,0.1-2.6,0.2-4.1c-0.8,1.3-1.9,2.2-3.3,2.8c-1.4,0.6-2.7,0.9-4.1,0.9
		c-2.6,0-4.8-0.8-6.7-2.4c-1.9-1.6-2.8-3.7-2.8-6.4s0.9-5,2.8-7s4.4-3.3,7.7-3.8c-2.5-0.8-4.3-2-5.4-3.6c-1.1-1.6-1.6-3.3-1.6-5.1
		c0-2.3,1-4.4,2.9-6.2c2-1.8,4.4-2.7,7.4-2.7c3,0,5.2,0.6,6.8,1.8s2.4,2.7,2.4,4.5s-0.6,3.3-1.7,4.4c-1.1,1.2-2.6,1.8-4.5,1.8
		c-0.6,0-1.3-0.1-1.9-0.2c1.7-1.9,2.5-3.4,2.5-4.7c0-1.3-0.3-2.2-1-2.8s-1.4-0.9-2.3-0.9c-1.4,0-2.6,0.5-3.4,1.4
		C510.6,245.2,510.2,246.3,510.2,247.7z M512.5,272.3c2.1,0,3.5-0.7,4.4-2.1c0.9-1.4,1.5-3.4,1.8-6l0.8-5.6c-2.3,0-4.2,0.2-5.8,0.7
		s-2.8,1-3.6,1.5c-0.9,0.6-1.6,1.4-2.2,2.4s-0.9,2.3-0.9,3.9s0.5,2.9,1.6,3.8C509.6,271.8,511,272.3,512.5,272.3z"/>
	<path class="st37" d="M548.4,274.4c-0.8-0.6-1.1-1.6-1.1-3.1s0.5-5.8,1.5-13c1-7.2,1.5-12.4,1.5-15.5s-0.2-5.1-0.6-6
		c3.1,0.2,5.1,1.5,6.1,3.6c2.3-1.3,4.9-1.9,7.7-1.9s5,0.9,6.7,2.6c1.6,1.7,2.4,3.9,2.4,6.5c0,3.2-1.2,6-3.5,8.6
		c-1.1,1.2-2.6,2.2-4.4,3c-1.8,0.8-3.7,1.1-5.9,1.1c-0.9,0-1.8-0.1-2.6-0.2l-0.1-1.9c0.1,0,0.2,0,0.4,0c3.4,0,6.2-1.3,8.2-3.8
		c1.4-1.8,2.1-3.7,2.1-5.7c0-2.9-1.2-4.9-3.6-5.8c-2-0.8-4.3-0.6-6.8,0.5v0.1c0,1.2-0.4,4.9-1.3,11.3c-0.9,6.4-1.3,11.7-1.3,16
		c0,1.9,0.1,3.4,0.3,4.5c-1,0.1-1.6,0.1-1.9,0.1C550.4,275.3,549.2,275,548.4,274.4z"/>
	<path class="st37" d="M582.6,259.1c-0.7,4.3-1.1,7.9-1.1,10.7c0,2.8,0.2,4.6,0.5,5.4c-2.4-0.6-4-1.5-4.8-2.8
		c-0.8-1.2-1.2-3-1.2-5.4c0-1.3,0.2-3.6,0.7-6.9c0.5-3.3,0.7-5.9,0.7-7.8s-0.1-3.3-0.3-4.3c0.7-0.1,1.3-0.1,1.9-0.1
		c1.8,0,3,0.3,3.7,0.9s1,1.6,1,3C583.7,252.4,583.3,254.8,582.6,259.1z M584.4,244c-0.9,0.1-1.6,0.2-2.2,0.2c-3.1,0-4.7-1.1-4.7-3.3
		c0-0.8,0.2-1.9,0.7-3.2c0.9-0.1,1.6-0.2,2.2-0.2c3.1,0,4.7,1.1,4.7,3.3C585,241.5,584.8,242.6,584.4,244z"/>
	<path class="st37" d="M602.4,253.6l-9.1,0.9c-1.2,0-2.1-0.3-2.5-0.8c-0.5-0.5-0.7-1.3-0.7-2.3s0.1-2,0.4-2.9c3,0.6,5.8,0.9,8.5,0.9
		s4.7-0.1,6.3-0.2c0.6-1.2,1-2.2,1.3-3.1c1.8,1.7,2.7,3.1,2.7,4.4c0,1.2-0.7,2.7-2.1,4.5c-1.4,1.7-3.5,4.1-6.1,6.9
		c-2.7,2.9-4.8,5.4-6.5,7.5c2.6,0.1,4.9,0.2,7,0.2c2,0,4.1-0.2,6.1-0.5c0.2,1,0.2,2,0.2,2.9c0,1-0.3,1.8-0.8,2.3
		c-0.5,0.6-1.5,0.8-2.9,0.8c-0.6,0-2.3-0.2-5.1-0.5s-5.2-0.5-7.3-0.5s-4.1,0.3-6,1c0.5-2.9,1.6-4.7,3.4-5.4
		C594.6,263.9,599,258.5,602.4,253.6z"/>
	<path class="st37" d="M624.9,253.6l-9.1,0.9c-1.2,0-2.1-0.3-2.5-0.8c-0.5-0.5-0.7-1.3-0.7-2.3s0.1-2,0.4-2.9c3,0.6,5.8,0.9,8.5,0.9
		s4.7-0.1,6.3-0.2c0.6-1.2,1-2.2,1.3-3.1c1.8,1.7,2.7,3.1,2.7,4.4c0,1.2-0.7,2.7-2.1,4.5c-1.4,1.7-3.5,4.1-6.1,6.9
		c-2.7,2.9-4.8,5.4-6.5,7.5c2.6,0.1,4.9,0.2,7,0.2c2,0,4.1-0.2,6.1-0.5c0.2,1,0.2,2,0.2,2.9c0,1-0.3,1.8-0.8,2.3
		c-0.5,0.6-1.5,0.8-2.9,0.8c-0.6,0-2.3-0.2-5.1-0.5s-5.2-0.5-7.3-0.5s-4.1,0.3-6,1c0.5-2.9,1.6-4.7,3.4-5.4
		C617.2,263.9,621.6,258.5,624.9,253.6z"/>
	<path class="st37" d="M645,263.4c-1.5,0-2.9-0.2-4.3-0.5c0,0.3,0,0.8,0,1.4c0,2.5,0.5,4.4,1.4,5.7s2.1,1.9,3.4,1.9
		c1.3,0,2.6-0.4,3.7-1.2s2.2-1.9,3.1-3.3c1.1,0.2,1.6,0.8,1.6,1.7c-2.7,4.1-6.1,6.2-10.3,6.2c-2.6,0-4.8-1-6.7-2.9s-2.9-4.7-2.9-8.2
		c0-2.6,0.5-5.1,1.5-7.5c1-2.4,2.6-4.3,4.8-6c2.2-1.6,4.6-2.4,7.3-2.4s4.6,0.6,5.9,1.8c1.2,1.2,1.9,2.8,1.9,4.8c0,2.9-1,5-3,6.4
		C650.3,262.7,647.9,263.4,645,263.4z M646.9,251.1c-1.6,0-2.9,1-3.9,2.9c-1.1,1.9-1.8,4.2-2.1,7h0.7c2.6,0,4.6-0.7,5.9-2.1
		c1.3-1.4,1.9-3,1.9-4.9c0-0.8-0.2-1.5-0.6-2S647.7,251.1,646.9,251.1z"/>
	<path class="st37" d="M667.2,259.8c1.1-4,2.4-6.9,3.9-8.7c1.5-1.9,3-2.8,4.3-2.8s2.3,0.5,3,1.5s1,2.3,1,3.8s-0.5,3-1.4,4.3
		c-0.9,1.3-2.2,2-3.8,2c-0.4,0-0.9-0.1-1.5-0.4c0.9-1.2,1.4-2.6,1.4-4.3c0-1-0.4-1.5-1.2-1.5c-0.6,0-1.2,0.4-1.9,1.2
		c-0.7,0.8-1.3,1.9-1.9,3.3c-0.6,1.4-1.1,3.2-1.5,5.4c-0.4,2.2-0.6,4.6-0.6,7c0,0.3,0.1,1.6,0.2,3.9c-1,0.1-1.6,0.1-1.9,0.1
		c-1.7,0-3-0.3-3.7-0.9c-0.7-0.6-1.1-1.6-1.1-3c0-0.6,0.3-2.9,1-7c0.6-4.1,1-7.3,1-9.7s-0.3-4.6-0.8-6.7c2.2,0.7,3.8,1.7,4.7,3
		c0.9,1.3,1.3,2.8,1.3,4.5C667.6,256.5,667.4,258.2,667.2,259.8z"/>
	<path class="st37" d="M689,259.1c-0.7,4.3-1.1,7.9-1.1,10.7c0,2.8,0.2,4.6,0.5,5.4c-2.4-0.6-4-1.5-4.8-2.8c-0.8-1.2-1.2-3-1.2-5.4
		c0-1.3,0.2-3.6,0.7-6.9c0.5-3.3,0.7-5.9,0.7-7.8s-0.1-3.3-0.3-4.3c0.7-0.1,1.3-0.1,1.9-0.1c1.8,0,3,0.3,3.7,0.9s1,1.6,1,3
		C690.1,252.4,689.7,254.8,689,259.1z M690.8,244c-0.9,0.1-1.6,0.2-2.2,0.2c-3.1,0-4.7-1.1-4.7-3.3c0-0.8,0.2-1.9,0.7-3.2
		c0.9-0.1,1.6-0.2,2.2-0.2c3.1,0,4.7,1.1,4.7,3.3C691.5,241.5,691.2,242.6,690.8,244z"/>
	<path class="st37" d="M701.5,266c0,1.4,0.3,2.6,0.8,3.5s1.3,1.3,2.3,1.3c1.4,0,2.8-0.8,4.1-2.5c1.3-1.7,2.3-3.8,3.1-6.4
		s1.2-5.1,1.2-7.5s-0.1-4.3-0.3-5.7c0.9-0.1,1.5-0.1,1.9-0.1c1.6,0,2.7,0.3,3.5,0.9c0.8,0.6,1.2,1.6,1.2,3.1c0,0.6-0.4,2.9-1.1,7
		c-0.7,4.1-1.1,7.4-1.1,9.9s0.5,4.7,1.4,6.6c-2.3-0.4-4-1.2-5-2.5c-1.1-1.3-1.6-3.2-1.6-5.6c0-0.4,0.1-1.2,0.2-2.5
		c-0.8,2.9-2.3,5.2-4.4,7c-2.1,1.8-4.2,2.6-6.2,2.6s-3.6-0.8-4.9-2.3c-1.2-1.5-1.8-3.6-1.8-6.4c0-2.8,0.5-5.4,1.5-8
		c1-2.6,2.5-4.8,4.4-6.6c2-1.8,4.2-2.7,6.6-2.7c1.4,0,2.8,0.3,4.3,1c-3.1,1.1-5.5,3.2-7.3,6.5C702.4,259.7,701.5,262.9,701.5,266z"
		/>
</g>
</svg>
