<?xml version="1.0" encoding="utf-8"?>
<!-- Generator: Adobe Illustrator 18.1.1, SVG Export Plug-In . SVG Version: 6.00 Build 0)  -->
<svg version="1.1" id="Layer_1" xmlns="http://www.w3.org/2000/svg" xmlns:xlink="http://www.w3.org/1999/xlink" x="0px" y="0px"
	 width="792px" height="306px" viewBox="0 0 792 306" style="enable-background:new 0 0 792 306;" xml:space="preserve">
<style type="text/css">
	.st0{fill:#C2371E;}
	.st1{fill:none;}
	.st2{fill:#FFFFFF;stroke:#FFFFFF;stroke-width:0.5;stroke-miterlimit:10;}
	.st3{fill:#C8AFB9;}
	.st4{fill:#F6E1EA;}
	.st5{fill:#A44023;}
	.st6{fill:#F0AA46;stroke:#A44023;stroke-width:0.25;stroke-miterlimit:10;}
	.st7{fill:#ED934F;}
	.st8{fill:#919191;}
	.st9{fill:#691924;}
	.st10{fill:#661C25;}
	.st11{fill:#611920;}
	.st12{fill:#6A1E26;}
	.st13{fill:#411A17;}
	.st14{fill:#E2EBE7;}
	.st15{fill:#EDF3F1;}
	.st16{fill:#E8F0EC;}
	.st17{fill:#122C1A;}
	.st18{fill:#06190C;}
	.st19{fill:#001C08;}
	.st20{fill:#6D0000;}
	.st21{fill:#AFB4AC;}
	.st22{fill:#73A282;}
	.st23{fill:#BADAC4;}
	.st24{fill:#F0AA46;}
	.st25{fill:#80303D;}
	.st26{fill:#7D0617;}
	.st27{fill:#1E4A26;}
	.st28{fill:#243326;}
	.st29{fill:#8A9D88;}
	.st30{fill:#A0A8A6;}
	.st31{fill:#CBD9D7;}
	.st32{fill:#BFB6B7;}
	.st33{fill:#384836;}
	.st34{fill:#622336;}
	.st35{fill:#34492E;}
	.st36{fill:#693944;}
	.st37{fill:#FFFFFF;}
</style>
<rect x="-9" y="-10.3" class="st0" width="810" height="178.3"/>
<g>
	<rect x="196.4" y="20.8" class="st1" width="304" height="150.6"/>
	<path class="st2" d="M199.2,119c1-3.9,3.1-6.9,6.2-8.9c-0.3-1.4-0.5-3.2-0.5-5.6c0-2.4,0.7-8.8,2.1-19.3
		c2.5-17.4,3.7-30.8,3.7-40.3c0-2-0.1-4.8-0.4-8.3c5.1,0.3,8.9,1.1,11.2,2.4c1,0.5,1.8,1.4,2.3,2.5c0.5,1.1,0.9,2.1,1,3.1
		c0.1,0.9,0.2,2.7,0.2,5.2c0,2.5-1,10.7-3.1,24.6c-2.1,13.9-3.3,24.8-3.6,32.8c16,0,27.9-1.3,35.6-3.9c-0.6,5-2.1,8.9-4.6,11.7
		c-2.4,2.8-5.5,4.2-9.1,4.2c-1.1,0-4.1-0.3-9.1-0.9c-5-0.6-10.2-0.9-15.8-0.9C209.9,117.3,204.5,117.9,199.2,119z"/>
	<path class="st2" d="M279.8,57.9c0.7,0,1.4,0.2,2.1,0.7c0.6,0.4,1,0.9,1,1.4c-6.8,4.7-10.9,11.3-12.3,19.8c1.4-3.8,3.2-7.1,5.2-9.8
		c2.1-2.8,4.2-4.9,6.4-6.3c4.3-2.6,8.4-4,12.5-4s7.5,2,10.3,6c2.8,4,4.3,9.3,4.3,16c0,7.5-1.5,14.4-4.6,20.7
		c-3.4,7.1-8.2,12-14.4,14.7c-3.5,1.6-7.4,2.3-11.6,2.3c-5.9,0-11-2.3-15.3-6.8c-4.4-4.6-6.5-11.1-6.5-19.7c0-8.5,2.1-16.1,6.3-22.6
		C267.3,63.7,272.9,59.6,279.8,57.9z M288.4,67c-4.4,0-8.3,3-11.8,8.9c-3.4,5.9-5.2,11.8-5.2,17.7c0,12.3,3.2,18.4,9.5,18.4
		c4.5,0,8.2-3,11-8.9c2.8-5.9,4.3-12.5,4.3-19.9C296.3,72.4,293.6,67,288.4,67z"/>
	<path class="st2" d="M354.1,59.3c2-0.1,3.4-0.2,4.3-0.2c3.5,0,6.2,0.6,8,1.9c1.8,1.3,2.7,3.6,2.7,7.1c0,1.1-0.6,5.8-1.9,14.2
		c-1.3,8.4-1.9,15.6-1.9,21.6c0,6,0.6,11.3,1.9,15.9c-5.1-1.6-8.6-3.9-10.5-6.9c-2-3-2.9-6.7-2.9-11c0-1.7,0.4-5.5,1.1-11.4
		c-2.1,7.7-5.3,14.2-9.6,19.4c-4.3,5.2-8.3,7.9-12.1,7.9c-7.8,0-11.7-5.6-11.7-16.8c0-3.7,0.6-8.9,1.7-15.6
		c1.1-6.7,1.7-11.7,1.7-15.1s-0.5-6.9-1.4-10.4c5.6,0,9.7,0.7,12.2,2.2c2.5,1.5,3.8,4.3,3.8,8.7c0,2.3-0.7,6.9-2.1,13.7
		c-1.4,6.8-2.1,12-2.1,15.4c0,5,1.4,7.5,4.1,7.5c1.4,0,2.9-0.9,4.7-2.8c1.8-1.9,3.4-4.3,5.1-7.4c1.6-3.1,3-6.9,4.1-11.5
		c1.1-4.6,1.7-9.3,1.7-14.1C354.7,66.7,354.5,62.6,354.1,59.3z"/>
	<path class="st2" d="M399.3,83.4c-1.7,9.6-2.5,17.6-2.5,23.8c0,6.2,0.4,10.3,1.2,12.1c-5.3-1.4-8.8-3.4-10.6-6.1
		c-1.8-2.7-2.7-6.7-2.7-12c0-2.8,0.5-8,1.6-15.4c1.1-7.4,1.6-13.2,1.6-17.3c0-4.1-0.2-7.3-0.6-9.5c1.5-0.1,2.9-0.2,4.2-0.2
		c3.9,0,6.6,0.7,8.2,2c1.5,1.3,2.3,3.6,2.3,6.7C401.7,68.4,400.9,73.8,399.3,83.4z M403.3,49.8c-1.9,0.3-3.5,0.4-5,0.4
		c-7,0-10.4-2.4-10.4-7.3c0-1.8,0.5-4.2,1.5-7.2c1.9-0.3,3.5-0.4,5-0.4c7,0,10.4,2.4,10.4,7.3C404.8,44.4,404.3,46.8,403.3,49.8z"/>
	<path class="st2" d="M437,65.3c-1.9,0-3.6,0.6-5.1,1.9c-1.5,1.3-2.2,3-2.2,5.3c0,2.3,0.8,4.5,2.4,6.5c1.6,2,3.5,3.8,5.8,5.3
		c2.3,1.5,4.6,3.1,6.9,4.7c2.3,1.6,4.4,3.5,6.1,5.9c1.8,2.3,2.7,4.9,2.9,7.8c0,4.9-2.1,9-6.3,12.3c-4.2,3.3-9.4,5-15.6,5
		c-6.2,0-11.1-1.3-14.6-3.7c-3.5-2.5-5.3-5.4-5.3-8.6s1-5.9,3-7.9c2-2,4.5-3,7.4-3c1.6,0,3,0.3,4.4,0.8c-2.2,2.3-3.2,4.7-3.2,7.3
		c0,2.6,0.7,4.6,2.1,6.2c1.4,1.6,3.3,2.3,5.8,2.3s4.5-0.6,6.1-1.9c1.7-1.2,2.5-2.9,2.5-4.9c0-2-0.6-3.8-1.7-5.3
		c-1.1-1.6-2.6-2.9-4.3-4.1c-1.7-1.2-3.6-2.5-5.6-4c-2-1.5-3.9-3-5.6-4.5c-1.7-1.5-3.2-3.4-4.3-5.8c-1.1-2.3-1.7-4.9-1.7-7.6
		c0-4.8,2-8.7,5.9-11.8c4-3.1,8.9-4.6,14.8-4.6c5.9,0,10.2,1.1,13,3.4c2.7,2.3,4.1,5,4.1,8.1c0,3.1-1,5.7-2.9,7.9
		c-1.9,2.2-4.4,3.2-7.4,3.2c-1.5,0-3.2-0.3-5.1-0.9c1.5-1.3,2.6-2.8,3.4-4.4c0.8-1.7,1.2-3.3,1.2-4.9s-0.7-3-2-4.1
		C440.5,65.9,438.9,65.3,437,65.3z"/>
	<path class="st2" d="M469.1,32.5c2.6-0.7,5.2-1.1,7.6-1.1c5,0,7.5,2.1,7.5,6.3c0,4.4-1.6,8.6-4.8,12.6c-3.2,4-7.8,7.6-13.9,10.8
		l-2.9-4.6c5.3-4.7,8-10.2,8-16.4C470.6,37.8,470.1,35.3,469.1,32.5z"/>
</g>
<path class="st3" d="M238,125.3c0,5,0,9.9-0.1,14.9c0,1,0.1,2.9-1.9,2c-0.4-0.2-0.3-1.8-0.4-2.8c-2.7-2.3-2.4,2.7-5.4,2.1
	c-4.7-1-5-4.2-6-7.4c-1.3-0.8-2.3-0.2-3.2,0.6c-1.2,1.4-1.6,3.1-1.8,4.8c-0.1,1.4-0.3,2.7-0.9,3.9c-0.7,2.4-0.1,4.1,2.6,4.4
	c2.3,0.2,4.4,0.9,6.4,1.7c3.7,1.3,7.3,1.6,10.5-0.9c1.3-1,2.7-0.8,4.1-0.5c2,0.1,3.9,0,5.8-0.8c0.5-0.4,0.7-0.8,0.9-1.4
	c0-0.6-0.2-1.1-0.5-1.5c-1.4-0.3-3-1.2-4.3-0.9c-4.1,0.9-4.6-1.3-4.7-4.5C238.9,134.4,240,129.8,238,125.3z"/>
<path d="M84.8,223c2.4,3.3,1.8,7.6,1.5,10.9c-0.3,5.3,1.5,6.1,5.8,5.7c1.5-0.1,3,0,4.1,1.3c2,4.2,6.1,4.2,9.7,4.5
	c4.8,0.4,9.6,0.6,14.4,1.4c2.6-0.3,3.4-2.5,4.6-4.2c2.4-7.1,2.6-14.6,3.9-22c0.2-5.9,1.2-11.8,2.1-17.6c0.7-4,2.4-5.4,7-4.5
	c5.2,1,10.9,2,16.1-1.1c1.4-2.9-0.7-3.9-2.7-4.6c-3.4-1.2-6.6-2.9-10-4.2c-2.8-1.1-5.4-2.3-6.6-5.4c-1-2.5-3.2-3.2-5.8-2.2
	c-5,4.6-10.1,9.1-15.2,13.6c-0.8,3.8,2.2,5.6,4,8.1c1.9,1,3.2-0.1,5.4-2c-2.5,5.4-2.3,10.3-2,15c0.4,6.2-2.4,11.7-2.9,17.6
	c-0.1,1.7-1.2,2.7-3.1,2.5c-1.9-0.1-2.4-1.5-2.6-3.1c-0.4-3-0.1-6,0.9-8.8c1.1-3.1,1.9-6.2-0.4-9.1c-3.4-1.5-5.9-3.5-6.8-7.6
	c-0.6-2.9-2.1-6.3-6.6-4.8c-2.3,2.7-1.4,5.5-0.7,8.5c1.4,6,2.5,12.1,3.6,18.2c0.4,2.4,1.3,6-2.5,7c-3.6,0.9-6.8-0.4-8.7-3.8
	c-1.6-2.7-2-5.6-2.1-8.6c-0.2-6.4,0.4-12.8-2-19c-0.6-1.6-0.1-3.4,0.5-5c1.6-4,0.8-7.5-2.2-10.6c-3.3-3.8-7.4-5.7-12.5-6.9
	c-12-2.8-22.1-9.5-31.1-17.8c-2.5-2.3-1.4-5.6-2-8.4c-0.6-2.7-0.3-6.6-5.1-4.7c-1.8,4.2-1.6,8.7-2,13.1c0.4,4.7,3.1,7.7,7.2,9.8
	c5.9,2.9,11.8,6,17.7,9c0.6,0.1,1.3,0.2,1.9,0.4c13.1,3.8,22.6,10.4,22.4,25.9C82.2,213.8,83.9,218.4,84.8,223z"/>
<path d="M33.1,164.1c2.9-4,2.8-8.7,2.7-13.3c2.5-2.8,2.2-6.1,1.4-9.4c-2.1-2.9-2.4-6.2-2.1-9.6c0.4-5.1,3.5-7.4,8.6-6
	c3.1,0.8,6.2,1.8,8.6-1.4c1.3-2.9,2.5-5.7,4.6-8.1c2.5-2.9,3-6.3,2.5-10c0-1-0.3-2-0.7-2.9c-0.9-1.8-2.4-3.1-4.2-4
	c-5.1-2.1-3.5-6.5-3.5-10.4c-0.2-3.1-0.1-6.3-0.6-9.4c-0.4-2.2-1.1-4.7-4.2-4.5c-7.5,5.1-8.2,7.3-5.5,16.6c-0.3,6.3-5.4,4.4-9,5.3
	c-2.4,0.6-6.5-2-7,2c-0.4,3.6-2.1,7.8,1.8,11.1c3.1,2.6,6.4,9.3,5.5,9.9c-5,3.7-0.3,8-1.7,11.6C31.3,142.4,32.2,153.3,33.1,164.1z"
	/>
<path d="M69,16c-7.9,0-15.8-3-23.8,1.7C36.9,22.5,30.6,32.3,32,40.7c1.5,8.9,9.8,15.8,19.2,18c6.7,1.6,13,1.6,19.6,0.5
	c3.2-0.6,7.8-3.1,9.2,0.5c1.7,4.2,2.3,9.7-1.5,13.9c-0.4,0.5-0.8,1.1-1.3,1.4c-4.5,2.4-5.5,5.6-2.4,9.9c0.4,0.6-0.2,2-0.4,3
	c0,5.7,1.8,11.1,3.6,16.4c1.1,2.5,2.5,4.7,5.2,6.2c-2-0.5-4-1.3-5.3,0.8c-1.2,2,0.1,3.7,1.1,5.3c2.6,4.7,7.5,7.5,10.2,12.1
	c0.4,0.8,0.9,1.5,1.7,2c3.2,1.3,6.4-3,9.6,0.1c8.4,7.7,9.3,7.8,19.9,2c-1.4,2.8-3.3,4.8-3.2,7.4c0.5,2.5,2.2,3.1,4.5,2.9
	c3.1-0.7,4.7-2.9,5.5-5.7c1.2-4.5,4.1-6.6,8.6-7.3c3.2-0.5,6.2-1.6,8.7-3.7c2.3-3.3,7.8-5.5,3.3-10.9c-3.2-1-4.8,1.3-6.6,3.2
	c-5.4,4.3-11.3,3.2-17.2,1.5c-3.8-3.2-8.3-4.6-13.2-4.6c-3.7,0.2-7,2.2-10.7,2.2c-3.3,0-6.6-0.8-6.3-4.6c0.4-4.6-2-7.5-4.7-10.6
	c-0.6-3,2.4-5.3,1.8-8.3c-0.3-1.5-1.5-2.5-2.2-3.9c-1.6-3.1-1.3-5.8,2.2-7.5c3.7-1.8,7.6-3.7,9.9-6.9c2.7-3.8,4.9-3,7.1-0.5
	c2.5,2.8,8.1,1.2,8.7,6.4c0.2,1.2,0.5,2.4,1.4,3.3c4.8,1.5,5-3.5,7.5-5.2c3.2-5.3,7.5-10,2.8-17.1c-1.9-2.9,1.5-6.1,4.3-8.2
	c5.4-2.2,11.4-2,16.8-4.2c13.2-7.9,15.1-22,4.6-35.9c-8.5-8.4-18.9-10.2-30.1-5.1c-5.4,2.5-10.6,5.2-15.9,7.8
	c-6.1,1.5-12.3,0.2-18.2-1C82.8,14.8,75.9,17.1,69,16z"/>
<path class="st4" d="M53.8,100.8c3.2-4.1-3.3-5.8-2.3-9.3c-0.1-0.8-0.2-1.7-0.3-2.5c-1.9,2.1-1.3,5-2.4,7.5
	C47.3,99.7,51.6,99.8,53.8,100.8z"/>
<path class="st5" d="M280.1,170.2c-0.1-6.9-5.4-10.7-9.2-15.4c-0.8-0.5-1.6-1-2.5-1.5c-3.5,1-3.8,1.2-1.5,4.5
	c2.4,3.3,2.1,5.7-0.8,8.3c-2.5,4.2-7.7,0.6-10.5,3.6c-0.4,0.5-0.5,1.1-0.4,1.7c0.1,0.2,0.3,0.3,0.4,0.5c1.8,2.2,6.7,0.3,6.7,3.4
	c0,3.2-2.9,6-5.9,7.8c-0.4,0.2-0.6,0.5-0.9,0.9c-0.8,1.7-0.1,3,1,4.3c2.2,1.8,4.4,0.7,6.6-0.2C271.1,184.4,277.7,179.3,280.1,170.2z
	"/>
<path class="st0" d="M248,145.9c0,0.3,0.1,0.6,0.1,0.9c-2.1,2.6-5.6,1.2-8,2.8c0.7,5.2,4.3,4.3,7.7,3.5c2.2-0.5,4-2.8,6.5-1.2
	c0.9,0.7,1.9,1.3,3,1.5c0.9,0.1,1.7,0.1,2.6-0.3c0.5-0.3,0.9-0.7,1-1.3c0.7-0.9,3.4-2.2,0.6-2.9c-3.6-0.8-4.9-3.6-7.1-5.6
	C252.4,144.7,250,144.9,248,145.9z"/>
<path class="st6" d="M267.1,166.7c3.7-1.5,4.9-6.1,2.4-8.6c-1.3-1.3-5-2.2-1-4.7c-2.1-2.3-4.2,0.2-6.2,0c-2.5,2-2.3,4.9-0.5,6.5
	c2.4,2.2,1.6,4.5,1.7,6.9C264.8,167.5,266,167.6,267.1,166.7z"/>
<path class="st7" d="M263.5,166.3c4.3-1.6,6.5-3.6,0.8-6.3c-3.4-1.6-1.8-4.3-2-6.6c-0.5-0.5-1-1-1.4-1.5c0,0.3-0.1,0.5-0.1,0.8
	c-2.1,2.2-2.2,5.9-5.4,7.3C256,164.7,259.1,166.3,263.5,166.3z"/>
<path class="st8" d="M248,145.9c2.5,0.1,4.9-0.2,6.4-2.5c0.8-3.6,0.3-7.2-0.3-10.8c-2,4.1,1.2,10.5-5.9,12.1
	C248,145,248,145.5,248,145.9z"/>
<path class="st9" d="M35.8,140.6c0,3.4,0,6.8,0.1,10.2c4.4,1.7,2.1,5.5,2.4,8.4c0.3,3.4,0.8,5.5,4.1,8.1c6.2,4.9,12.4,9.6,19.4,12.9
	c4,1.9,8.1,5.2,13.2,4.2c4.7-1,6,4.3,9.7,5.1c2.7,1.1,4.5,4.8,8.3,2.6c1.6-1.9,2-4.2,2.6-6.5c1.6-6.4,0.3-7.8-6.3-6.7
	c-2.5,0.4-4.2-0.1-4.8-2.8C81.6,164.3,72.1,161,62,159.5c-9.5-1.5-11-2.5-11.4-11.9c-0.2-5.8-2.5-11.2-2.9-17
	c-0.3-3.7-3.3-4.8-6.6-4.4c-3.1,0.3-6,1.4-6.4,5.1C34.3,134.4,34.3,137.6,35.8,140.6z"/>
<path class="st10" d="M92.3,192.1c-2.8-0.1-4.6-3.3-7.7-2.6c1.6,3.3,4.3,6.4,0.6,10.3c-0.9,1-1,3.7-0.4,4.9
	c3.7,6.6,1.9,13.7,2.3,20.6c0.6,9.3,4.4,13,13.3,13.5c3.4,0.2,4.4-1.2,4.7-4.4c0.8-8.2-2.6-15.7-3.7-23.6c-0.4-2.7-1.4-5.6-1.4-8.5
	c0-0.3-0.1-0.6-0.1-0.9C98.6,197.3,99.5,191.4,92.3,192.1z"/>
<path d="M100.1,202.3c3.2,1,5.1,3.7,4.9,6.6c-0.5,6.4,3.2,6.8,7.8,6.3c3.9-3.4,4.9-8,5.2-12.9c1.6-3.9-3.2-4.7-3.8-7.6
	c0.2-9.7,3-18.7,8.2-26.9c1.7-2.1,5.1-3.5,3.3-7.2c-3.1-3.6-7.1-5.8-11.4-7.8c-4.3,1.9-2,6.2-3.3,9.2c-0.1,1.4-1,2.4-1.9,3.4
	c-0.5,0.7-0.9,1.4-1.1,2.2c-0.1,1.7-0.6,3.3-1.6,4.6c-1.1,2.3-2.3,4.4-4.9,5.2C95.7,185.5,97.9,193.9,100.1,202.3L100.1,202.3z"/>
<path class="st11" d="M128.4,181.7c1.6,0.1,4.3-0.5,4.5,1.3c1.7,10,11.6,7.4,17.1,11.4c1.3,1,3.9,0.2,3.8,3c0,0,0-0.1,0-0.1
	c6.3,1.6,12.7,1,19.1,1.6c4.6,0.4,7.6-2.4,8.5-7c0.9-4.7-1.5-7.2-5.8-8.5c-2.5-0.8-5-1.2-7.6-1c-11.3,0.9-22-1.5-32.4-5.6
	c-4.3-1.7-7.1-1-7.9,3.9C128,181.1,128.2,181.4,128.4,181.7z"/>
<path class="st12" d="M118,202.3c-3.1,3.7-4.5,8.2-5.2,12.9c1.1,6.2-3.8,11.5-2.7,18c0.6,3.5,1.1,5.4,5.2,5.4c3.7-0.1,5-1.1,5.5-5
	c1.3-9.2,3.2-18.3,2.4-27.7c-0.1-1-0.1-2.1,1.2-2.6c3.7-1.5,2.2-3.9,0.2-5.2c-2.5-1.6-3.8,0.1-4.3,2.6
	C120.2,201.8,119.1,202.1,118,202.3z"/>
<path class="st13" d="M122,166.3c-0.8,0.1-2.3,0.2-2.4,0.5c-2,9.3-10.6,17.3-5.4,27.9c4-0.5,13.6-9.4,14.1-12.9c0,0,0,0,0,0
	c-3.7-2.6-2.5-5.6-1.1-9C129.4,167.2,127.6,165.3,122,166.3z"/>
<path d="M100.1,202.3c0.7-8.2-2.2-16.8,3.2-24.4c0.7,0.2,1.1-0.1,1.1-0.9c-1.3-4.7-6.2-6.7-8.2-10.9c-4.5-3.9-1.8-9.7-3.6-14.3
	c-3.8-1.7-6.5,0.7-9.3,2.6c-10.1,7.1-21.6,4.8-28-5.8c-1.9-5.8-0.7-11.8-0.9-17.6c-0.1-2.9,0.6-6.1-3-7.5c-2.2,2.4-4.3,1.6-6.8,0.3
	c-5.4-2.8-11.2,0.5-11.2,6.6c0,3.4-2.5,7.8,2.4,10.2c3.2-0.7,1.2-2,0.6-3.6c-2-5.6-0.1-9,4.9-9.3c3.1-0.2,5.2,0.7,4.8,4.2
	c-0.8,7.5,3.3,14.3,2.9,21.9c-0.3,4.8,3.9,7.5,9.2,7.4c8.3-0.1,15.7,2.3,21.3,8.9c1.4,1.7,2.6,3.2,2.7,5.6c0,2.1-1.1,5.2,2.3,5.8
	c3.2,0.5,6.8,1.4,9-3.2c2.6,5.3-2.6,9.2-1.1,13.7c3.1,1.7,5.7,3.7,5.3,7.9C97.5,201.4,98.7,202.1,100.1,202.3z"/>
<path class="st4" d="M43.4,98.5c-0.4,2.7,1,3.8,2.4,4.8c3.1,2.1,4.5,4.2,1.9,7.8c-0.9,1.2-1.2,3.7,0.8,4.4c2.5,0.8,3.1-1.5,3.7-3.4
	C54.2,104.8,53.2,103.1,43.4,98.5z"/>
<path class="st4" d="M39.3,106.5c0.1,1.6,0.5,3.3,2,3.7c1.5,0.4,1.9-1.3,2.1-2.5c0.4-1.9-0.7-2.7-2.4-3
	C39.6,104.3,39.4,105.4,39.3,106.5z"/>
<path class="st4" d="M32.9,113.5c0.3,1.4,0.5,2.8,2.4,2.2c1.2-0.4,2.7-0.9,2.4-2.5c-0.3-1.3-1.7-1.9-3-1.9
	C33.2,111.4,32.9,112.4,32.9,113.5z"/>
<path class="st14" d="M65.3,54.3c6.8,0.6,12.8-1.6,18.1-5.5c3.5-2.6,7.5-3,11.6-2.9c6.4,0.2,10.3-2,12.2-8.6
	c1.3-4.7,4.4-8.8,10.5-8.7c6.6,0.1,13.5,4.2,15.9,9.1c1.7,3.5-0.5,10.7,7.6,8.9c6.8-1.5,13.2-8,13-14.6
	c-0.5-18.4-13.3-25.3-28.6-17.6c-16.8,8.5-33.2,9.9-50.8,8.2c-1.9-0.2-3.8,0-5.7,0c1,9-1.7,17.5-4.3,25.9
	C64.2,50.3,63.6,52.4,65.3,54.3z"/>
<path class="st15" d="M65.3,54.3c1.7-6.1,3-12.3,5.1-18.2c1.8-5,2.1-9.4-1.2-13.7c-6.6-0.6-13.2-0.5-19.4,2.3
	c-5.9,2.7-9.9,7.4-10.6,13.5c-0.7,6,4.8,9.1,9.2,12C53.4,53.3,59.1,55.1,65.3,54.3z"/>
<path class="st4" d="M87.3,103.4c-0.4,1.1-3.4,3.3,0.5,2.9c4.1-0.4,4,1.4,3.9,4.4c-0.4,7.9,3.5,11,11.2,9.1c2.5-0.6,4.8-1.6,7.2-2.3
	c4-1.3,7.8-1.2,11.6,0.7c3,1.5,6.1,1.5,9.3,0.7c3.7-1.2,6.6-3.1,6.7-7.5c0-3.5-0.6-6.9-3-9.6c-5.3-2.9-10.9,1.1-16.3-0.5
	c-1.9,0-3.6-0.4-4.5-2.4c-1.4-2-3.2-3.1-5.2-0.9c-1.6,1.7-3.3,2.6-5.5,2.7c-0.6,0.1-1.1,0.2-1.7,0.4c-2.5,0.8-5.7,1.6-7.3-0.1
	C89.5,95.7,88.7,99.8,87.3,103.4z"/>
<path class="st16" d="M120.3,37c-2.5,0.5-5.8,0.8-7.1,3.4c-3.8,7.8-10.9,9.7-18.4,11c-1.7,0.3-3.6,0.1-5,0.9
	c-3.1,1.8-5.7,4.7-4.5,8.2c1.2,3.5,4.4,1.1,6.6,0.5c8.5-2.1,17-4.5,25.8-1.7c1.3,0.4,2.5,0.2,3.3-1.1c2.3-3.3,5-6.4,6.9-10
	C130.6,43.6,125.9,37,120.3,37z"/>
<path class="st4" d="M118.1,81.9c1-1,1.6-2.3,0.1-3.2c-4.8-2.6-9.6-5.3-14.6-7.5c-1.9-0.8-4.1-2.2-3.6,2.7c0.4,3.4-5.6,5.1-8.7,7
	c-7.2,4.4-8,8.1-1.2,13.4c0.4,1,0.1,2.4,1.5,2.9c0.6,0,1.1-0.2,1.5-0.7c1.3-1.7,0.6-4.5,2.8-5.8c0.4-0.3,0.8-0.7,1.2-1.1
	c1.1-1.1,1.6-2.8,3.3-3.3c3.7,1.4,7,1.5,9.9-1.7C112.4,82.4,116,84,118.1,81.9z"/>
<path class="st17" d="M112.9,99.5c-0.3,5.1,2,5.1,5.4,2.7c5.1-1.3,10.2-2.9,15.3-0.2c1.8,2.8,1.8,6,2.5,9.1c1.9,5.2-1.2,6.2-5.4,6.3
	c-3.2,0.2-6.2,0.4-9.3-1.2c-3.9-2-7.8-1-11.4,1.3c5.1,0,9.5,1.4,13.1,5.1c1.2-1.2,2.6-1.2,4.1-0.7c5.8,2,9.8-0.3,12.6-5.4
	c2.3-2.9,0.8-6.1,1.1-9.2c-0.3-8.2-3.7-12.1-11.8-12.8c-4.2-0.4-6.1-2.4-5.1-6.2c0.7-2.8-1-5.5,0.2-8.1c0-0.4,0.1-0.7,0.1-1.1
	c-3.8,0.4-2.2,6.2-6.4,6.3c-0.2,0.2-0.5,0.3-0.7,0.5c-1.7,3.1,1.7,7.5-2.6,10C113.8,96.7,113.5,98.1,112.9,99.5z"/>
<path class="st18" d="M91.2,130.3c0.8,1.2,1.7,2.5,2.5,3.7c-0.7,5.6,0.5,11.2-0.1,16.7c0.6,2.6-1.8,7.3,2.1,7.5
	c3.9,0.3,3.3-4.5,3.9-7.5c0.5-2.7-0.1-6.6,4.5-6.2c4.4,0.4,6.2,3.2,5.8,7.5c-0.2,2.3-0.6,4.7-0.2,7c0.3,1.9,0,4.5,3.1,4.7
	c0.5-3.5,1-6.9,1.4-10.4c2.6-2.3,1.7-6.2,3.8-8.8c1.6-0.4,2.9-1.2,3.6-2.8c-1.7-0.1-3.5,0-3.6-2.4c-1.7-1.9-3.9-1.1-5.9-0.9
	c-4.8,0.4-8.3-1.6-11.8-4.8c-2.9-2.7-0.8-3.5,0.9-4.9C97.5,125.7,94.5,128.9,91.2,130.3z"/>
<path class="st19" d="M118.1,81.9c-4.3-0.1-8.5-0.6-11.8,3.7c-2.3,3-4.2-3.1-7-1.3c-2.1,2.2-0.3,4.3,0.4,6.2
	c1.5,4.4,0.8,6.6-4.4,5.6c-1.1-0.2-2.1,0.1-2.7,1.1l0,0c-2.1,2.9-0.1,4.2,2.2,5c2.5,0.8,5.2,1.2,7.7-0.3l-0.1,0
	c3.9-1.4,7.1-3.7,9.1-7.5c-1.6-5.7,2.4-7.3,6.4-8.9c0,0,0.2-0.2,0.3-0.2C118.2,84.1,118.1,83,118.1,81.9z"/>
<path class="st4" d="M101.4,128.9c-1.8,0.5-4.4-1.2-5.3,0.7c-1,2,1.3,3.6,2.6,5.3c5.3,6.7,12.1,6.6,19.5,4.6
	c1.8-2.6,4.3-4.8,4.7-8.1c0.1-1.1-0.2-2.2-1.2-2.7c-1.2-0.6-1.7,0-2.4,1.1c-4.4,6.5-10.2,6.8-15.3,1
	C103.3,129.9,102.2,129.5,101.4,128.9z"/>
<path class="st20" d="M140,116.4c-4.4,3.2-9,5.9-14.8,4.2c-1.2-0.3-1.9,0.6-1.8,1.8c6.6,0.7,13.5,2.9,19.4-2.3
	C141.2,119.4,140.1,118.3,140,116.4z"/>
<path class="st21" d="M102.5,101.8c-2.1-0.1-4.2-0.1-6.3-0.3c-2.7-0.2-4.4-1.3-3.7-4.4c-0.8-0.9-1.6-1.9-2.4-2.8
	c-0.7,3.1-4,5.4-2.8,9c1.9,0,2.5-4.9,5.9-0.9C94.7,104.2,99.6,104.6,102.5,101.8z"/>
<path class="st20" d="M102.8,123.8c-4-0.9-8-1.8-12-2.6C94.3,125.1,98.4,125.9,102.8,123.8z"/>
<path class="st22" d="M110.7,125.1c0,1.4,0.9,1.9,2,2c1.4,0.1,2.5-0.5,2.5-2.1c0-1.2-0.8-2.1-1.9-2.1
	C112.1,122.9,111,123.6,110.7,125.1z"/>
<path class="st23" d="M144,125.2c6.2-3.4,7.1-5.8,3.4-8.9C150.1,120.8,145.4,122.4,144,125.2z"/>
<path class="st20" d="M280.1,170.2c-2.5,3.3-4.7,8.9-7.2,9.7c-6,1.9-9.2,8.6-15.9,8.3c-0.3,0.1-0.5,0.2-0.8,0.2
	c-1.5,1.4-3.4,2-5,3.1c-2.9,2.4-6.2,2.9-10,2.7c-8.8-0.4-17.7,0.4-26.3-2.6c-0.9-0.2-1.8-0.3-2.7-0.3c-2.7-0.7-5.4-1.3-8.1-1.8
	c-4.4-0.9-8-2.8-9.7-7.3c-2.6-5-8.4-8.4-7.9-15c0.4-1.8,1.4-3.9-0.7-5.2c-1.7-1-3.2,0-4.5,1.2c-3.3,6.1-2.5,12.1,0.5,18
	c1.3,2.6,3.5,4.7,4,7.8c0.6,2.5,1.7,4.4,4.4,5.1c2.6-1,3.8,1.3,5.5,2.3c18.7,11.1,55.6,8.8,72.7-4.8
	C275.2,186.3,279.8,179.3,280.1,170.2z"/>
<path d="M190,194.2c-0.8-1.5-1.6-2.9-2.4-4.4c-0.6-0.9-1.1-1.8-1.5-2.8c-3.2-7.1-8.6-10-16.2-8.8c-1.2,0.2-2.5,0.3-3.8,0.2
	c-6.9,0-13.6-1-20.2-2.9c-4.7-1.3-8.4-3.2-10.6-8.1c-1.9-4.1-4.7-8.4-10.7-6.3c1.6,3-2.3,3.1-2.6,5.1c6,0.9,5.1,3.8,2.7,7.8
	c-3,4.8-1.9,6.9,3.8,7.7c1.2-3.6,2.8-4.8,7-2.9c8.8,4.1,18.3,6,28.2,5.6c3.9-0.1,7.8-0.9,11.8,1.4c2.6,1.5,5.4,1.7,4.4,5.7
	c-0.9,4-3.3,5.6-7.3,5.6c-6.2,0-12.4,0.1-18.6,0.2c10.2,3.3,20.7,3.8,31.3,2.7C188.8,199.7,190.5,197.9,190,194.2z"/>
<path class="st0" d="M263.5,166.3c-1.9-2.9-6.5-2.6-7.7-6.3c-0.1-1-0.6-1.7-1.4-2.2c-1.1-0.9-2.7-0.7-3.9-1.5c1-0.2,1.9-0.3,2.7-0.9
	c1.6-1.1,1.2-3.2,2.4-4.5c-2.4-5.3-5.7-1.2-7.4,0c-3.4,2.5-5.6,2.3-7.7-1.1c0.3-1.2,3-0.2,2.2-2.5c-1.6-1.2-3.8-2.5-5.1-0.7
	c-2.8,3.9-6.4,2.4-9.8,2.1c-2.3,0.4-4.7,0.5-7,0.2c-5.3-0.7-5.3-0.8-8.8,3.1c-4.1-4.6-5-4.5-9.3,1c-1.8-2.6-4.2-3.6-7.2-3.1
	c-0.9,0.3-1.6,0.9-1.9,1.8c-0.1,0.6-0.1,1.1,0.1,1.7c0.3,1.6,4.6,1.9,1.6,4.6c-0.3,0.5-0.5,1.1-0.6,1.6c0.3,2.6,1.8,3.8,4.4,3.8
	c1.9-0.3,3.4-1.3,5-2.2c2.8-3.3,6.6,0.9,9.5-1.3c1.2-0.9,0.4,0.1,0.3,0.3c-1.8,3.6,0.5,5.2,3.3,6.2c1.9,0.6,0.9,0.6,0.2,1.3
	c-1.5,1.4-1,3.1,0.1,4.6c2.4,2.2,6.4,3.6,4.2,8.2c0.4,3.2,2.5,5.1,5,6.8c0.4,0,0.8-0.2,1.2-0.2c1.3-0.1,2-4.5,3.9-0.5
	c2.1,0.4,3.6-0.7,5.2-1.9c2.5-2.7,6.7-1.7,9.3-4.1c0.8-1.2,0.8-2.5,0.3-3.8c-0.8-1.5-2.3-2.2-3.8-2.8c-4-1.6-9.3,2.9-12.5-2.8
	c-0.3-0.5-0.7-0.9-1.2-1.3c-1.5-1.7-3.5-3.1-4.3-5.4c1-1,1.3,0.7,1.8,0.5c6.7-1.6,11,2.3,15,6.8c2.3,0.1,2.4-1.8,2.9-3.2
	c0.9-2.6,2.7-2.7,4.9-1.7c2.7,0.2,3.8,3.5,6.6,3.3c2.5,0,5-0.1,7.5-0.1c2.4,0,4.1-0.6,4-3.4C265.9,166.6,264.7,166.4,263.5,166.3z"
	/>
<path class="st24" d="M235,183c-0.8,1.5-2.3,2.1-3.8,2.6c-0.4,0.6-0.4,1.2,0.1,1.8c0.7,0.7,1.7,1.1,2.7,1.4c5.8,2.3,11.2,1,16.6-1.4
	c1.9-0.6,3.8-1.1,5.1-2.8c6.8,0.9,6.7-6.2,10.1-9.1c1-0.9,0.1-4.2-3.1-4c-2.3,0.1-4.7,0-7-0.1c-2.2-2-4.3-1.1-6.5,0
	c-3.3,3.6,1.1,3.7,2.4,5.2c1.2,1.2,2.1,2.4-0.3,3.3c-3.4,0.4-5.5,5.5-9.8,2.5C239.2,182.1,237.1,182.1,235,183z"/>
<path class="st25" d="M255.6,184.7c-1.9-0.6-3.6-0.3-5.1,0.9c-0.9,1.6-4.5,1.4-3.6,3.6c1,2.8,4,1.7,6.2,1.2c1.5-0.3,2.7-1.3,3.8-2.3
	c0,0,0,0,0,0C256.5,187,256.1,185.9,255.6,184.7z"/>
<path class="st26" d="M249.2,172.7c2.2-0.4,4.3-0.8,6.5-1.2c0-0.4,0-0.9,0-1.3c-2.1-1.4-2.4-5.6-6.4-3.9
	C248.1,168.4,248.2,170.6,249.2,172.7z"/>
<path class="st7" d="M195.2,150.8c1,0.3,2.2,0.4,3,1c3.1,2.3,6.1,5.1,8-1.1c0.5-1.6,1.6-1,2.5-0.7c1.2,0.4,1.5,1,0.5,2.3
	c-1.2,1.5-0.1,3,1.6,3.2c1.4,0.2,2.6-0.4,3.4-2.1c0.8-1.6,0.9-7.7,5.3-1.9c0.6,0.8,6-0.1,8.2-2.9c-2.2-1.5-3.8-3.5-7.3-2.4
	c-2.6,0.8-1.1-1.7-0.9-2.9c-2.5-0.8-4.8,0.7-7.2,0.9c-2.5,0.1,0.8-4.5-2.8-3.5c0.4,5.6-2.6,5.6-6.6,3.9c-1,0.5-2.2,0.2-3.1,0.8
	C198,147.1,195,147.6,195.2,150.8z"/>
<path class="st8" d="M223.5,134.3c-1-9.6-0.2-19.3,0-28.9c-1.6,8.8-5.2,17.3-2.8,26.3c-0.8,1.4-0.9,2.7,0.4,3.9
	C221.9,135.1,222.7,134.7,223.5,134.3z"/>
<path class="st27" d="M242.6,147.3c-0.7,0.8-1.4,1.6-2.2,2.5c3.3,1.1,6.7,2.2,7.6-3C246.2,146,244.4,147,242.6,147.3z"/>
<path class="st27" d="M254.4,158.2c0.5,0.6,0.9,1.2,1.4,1.8c6.6,0.9,4.7-3.9,5-7.3c-0.8-0.1-1.5-0.2-2.3-0.2
	c-0.8,0.4-1.3,0.9-1.8,1.6C256.3,155.6,254.2,156.3,254.4,158.2z"/>
<path class="st26" d="M258.2,154.7c0.1-0.8,0.2-1.6,0.3-2.3c-1.2-0.1-2.4-0.3-2.9-1.6c-4.2-1.1-2.2,2.3-2.9,3.8
	C254.5,156.7,256.4,155.7,258.2,154.7z"/>
<path class="st4" d="M112.9,163.8c-2.9-3.7-1-7.8-0.6-11.6c0.7-6.2-5.7-12.5-11.4-10.7c-3.1,1-2.8,4.5-3.3,7.1
	c-0.6,2.9-0.7,5.9-1,8.9c0,0.3-0.6,0.5-1,0.7c-2-2.2-0.5-4.9-0.9-7.3c-0.8-0.8-1.5-0.8-2.2,0c0,0.5-0.1,1-0.1,1.5
	c-0.7,5.3-2.9,11,2.8,15.1c1.2,1.2,2.6,1.1,4.1,0.8c4.2,1.6,6.9-4.5,11.2-2.1C111.8,166,112.6,165.2,112.9,163.8z"/>
<path class="st28" d="M110.4,166.3c-2.1-2.5-4-6.1-6.7-0.4c-1,2.2-3.1-0.3-4.5,0.7c-1.6,2.7,0.5,4.2,2,6c1.3,1.5,3.6,2.6,2.7,5.2
	c-0.2-0.1-0.4-0.1-0.6,0c5.7,2.4,1.8-4.6,4.7-4.8c-0.8-2.1-0.3-3.9,1.1-5.5C109.5,167.2,110,166.7,110.4,166.3z"/>
<path class="st29" d="M109.1,167.6c-1.9,0.6-4.5,0.7-4.5,3.3c0,1.6,1.8,2.1,3.4,2.1C109.7,171.5,110.6,169.8,109.1,167.6z"/>
<path class="st15" d="M103.9,177.8c2.9-2,0.6-3.7-0.5-5.1c-1.5-2-3.7-3.4-4.1-6.1c-1.4,0.3-2.8,0.6-4.2,0.9
	C97,171.8,101.4,174.1,103.9,177.8z"/>
<path class="st8" d="M201.8,126.5c-0.2-3.7,5.1-7.5,0-11.2c-1.3,3.8-3.5,7.5-1.1,11.7c0,0.1,0.4,0,0.6-0.1
	C201.5,126.8,201.6,126.6,201.8,126.5z"/>
<path class="st8" d="M198.8,138c-1.1,2.9,0.1,5.3,1.6,7.7c1.2,0.6,2.5,1.4,2.4-1c-2.3-3.4-3.4-7-1-11.4
	C198.7,134.2,199.8,136.7,198.8,138z"/>
<path class="st30" d="M210.6,136.9c-0.4-3,2.3-5.6,1.2-8.7c-2.1,1.5-4.2,3-4,6c0.6,1.7-0.4,3.8,1.3,5.3
	C210.5,139.1,210.1,137.7,210.6,136.9z"/>
<path class="st31" d="M84.6,42.5c5.1,1.4,9.6-2.4,13.7,1.3c0.3,0.3,1.9,0,2.3-0.5c3.2-3.5,2.8-8.2,2.7-12.1c-0.1-3-4.4-3.4-7.4-3.4
	c-1.2,0-2.4,0.5-3.7,0.2c-2.5-0.5-4.7-2.7-7.5,0.4c-3.5,3.9-4.7,8.9-5.5,13.3C78.5,45.1,83.3,41.6,84.6,42.5z"/>
<path class="st32" d="M133.7,101.9c-3.8-4.5-10.6-4.4-15.3,0.2C123.5,105.1,128.6,101.7,133.7,101.9z"/>
<path class="st15" d="M110.5,94.3c-2.5,2.7-6.3,4-8,7.5c3.3,0.6,6.1,0.4,7.9-3.3c0.9-1.9,1.9,0,2.6,0.9c0.9-0.8,1.7-1.7,2.6-2.5
	c1-1.7-0.6-2.3-1.5-3.1c-0.5-0.3-1-0.4-1.5-0.5C111.7,93.4,111,93.6,110.5,94.3z"/>
<path class="st27" d="M130.9,117.3c3.2,3.1,4.7-0.2,6.4-1.9c1.9-1.9,0.8-3.3-1.1-4.4C136,114.5,133.4,115.9,130.9,117.3z"/>
<path class="st14" d="M92.6,97.1c3,0.4,6.6,3,8.9-0.5c2.2-3.3,0.7-6.9-1.4-10.1c-0.4-0.7-0.5-1.6-0.8-2.4C97,85,97.5,87.6,96.2,89
	c0,0.6,0.7,1.1,0.2,1.7c-0.5-0.4-0.9-0.9-1.3-1.4C91.2,90.9,92.5,94.2,92.6,97.1z"/>
<path class="st33" d="M95.1,89.3c-0.6,2-2.1,4.3,1.2,5.2c1.5,0.4,3.1,0.2,3.6-1.8c0.7-3.1-1.3-3.6-3.7-3.8
	C95.8,89.1,95.5,89.3,95.1,89.3z"/>
<path class="st14" d="M110.5,94.3c0.9-0.1,1.7-0.1,2.6-0.2c0.2-0.3,0.4-0.6,0.4-0.8c-0.1,0.2-0.2,0.4-0.4,0.8
	c0.8,0.9,1.6,1.9,2.5,2.8c6.9-2.6,2.2-7.6,2.4-11.5C109.2,85,108.5,85.8,110.5,94.3z"/>
<path class="st24" d="M234.2,187.1c-0.9-0.1-1.9-0.2-2.8-0.2c-1.7,0.2-3.4,0.9-5-0.2c-0.3-2.7-4.5-3-3.7-6.3
	c-0.1-0.3-0.3-0.5-0.4-0.8c-0.7-0.7-1.5-1-2.4-1c-2.2,0.5-4.1,2.5-6.6,1.2c-2.7-1-5.4-1.4-8.1-0.6c-0.6,0.2-1.1,0.6-1.6,1
	c-2.7,5.6,4,3.7,5,6.3c3.7,0.9,1.5,4.9,3.5,6.7c0.8,0,1.6,0.1,2.4,0.1c4.8,0.5,9.7-0.2,14.3,1.5
	C234.3,194.9,235.9,192.1,234.2,187.1z"/>
<path class="st5" d="M212.1,193.2c-0.7-2.6,1.9-3.3,3-4.7c-1.5-2.2-4.1-1.6-5.8-2.8c-5.8-0.7-10.2-6.6-16.7-4.3
	c-0.5,0.6-0.5,1.1,0.1,1.6c1.5,6.8,7.4,7.5,12.6,9C207.5,192.7,209.8,192.9,212.1,193.2z"/>
<path class="st5" d="M234.2,187.1c-2.3,1.7-0.1,7.3-5.5,6.2c0,1.3,0.6,2,1.9,1.9c7.1-0.9,14.7,0.9,21.4-3.1c2.6-0.2,4.8-0.8,5-4
	c-2.9-0.1-5.5,1.8-8.7,1c0.3-1.5,2.8-1.7,2.3-3.6C245.3,188.2,239.9,188.8,234.2,187.1z"/>
<path class="st0" d="M182.2,162.5c0,0.4,0.1,0.9,0.1,1.3c1-0.2,2.6-0.9,2.9-0.5c1.6,1.9-1.4,2.7-1.4,4.3c2.8,1.3,2.1,4.9,4.3,6.6
	c2.1,1.5,4.2,2.8,6.9,1.9c0.9-0.5,1.2-1.4,1.5-2.3c-0.1-1.9,1.6-4.2-1.2-5.6c-2.1-0.6-4.8-0.9-5.1-3.7c-0.3-3.4,3.6-3.5,5.1-5.6
	l-0.1,0.1c1.7-2.2,0.3-3.6-1.2-5c-0.1-0.5-0.1-1-0.2-1.5C189.1,154.6,185.6,158.5,182.2,162.5z"/>
<path class="st25" d="M251.9,192.2c-5.4,0.7-10.7,1.3-16.1,2c-2.5,0.3-5,1.2-7.1-0.8c-4.7-1-9.4-2.1-14.2,0c6,2,12.1,3.5,18.6,2.6
	c5.9-0.8,12.1,1.7,17.9-1.4C252.4,193.9,252.2,193.2,251.9,192.2z"/>
<path class="st0" d="M195.1,175.4c-5.5-0.1-7.1-6-11.4-7.9c0.9,6.4,5.7,10.5,9,15.5c0.1-0.5,0.1-1,0.2-1.5
	C197.4,178.5,197.5,178.5,195.1,175.4z"/>
<path class="st0" d="M195.4,168.9c0.9,1.4-2.9,2.8,0,4.1c1.1,1.5,3.8,1.5,3.4,4.6c-0.6,4.9,2.2,4.5,5.4,2.8l0-0.2
	c7.2-1,7.5-1.5,4.9-7.1c1.6,0.9,2.2,3.1,4.5,2.9c0.6-0.1,1.1-0.4,1.6-0.8c2.3-9.6-1.2-9.9-10.7-7.4c0.1-0.1,0.4-0.2,0.9-0.4
	c2.4-1.1,7,0.8,6.8-3.7c-0.2-4-4.5-2.8-7.1-3.7c-0.6-0.2-1.2-0.3-1.9-0.1c-1.3,0.7-2.7,1.4-4,2.2c-0.9,1-1.2,2.3-2.9,2.8
	C193.9,165.4,193.7,167.1,195.4,168.9z"/>
<path class="st7" d="M228.6,171.4c2.3,8.1,8.3,3.5,12.9,3.8c1.1-1.3,1.4-2.6,0.2-4c-3-2.5-2.2-10-9.3-7.2c-0.1,0-0.7-0.6-0.6-0.9
	c0.4-1.5,0.9-3.2-1.5-3.1c-2.4,0.1-0.9,2.9-2.7,4.5c-0.5-2.1,0-5.8-3.6-4.3c-2.9,1.2-2.1,4-1,6C224.3,168.5,225.4,171.3,228.6,171.4
	c1.5-0.8,2.7-2,5.7-2.4C231.9,170.6,229.9,170.2,228.6,171.4z"/>
<path class="st7" d="M203.2,159.9c1.4,1.8,3.2,2.6,5.5,2.6c1,0,2.3-0.3,2.3,1.3c-0.1,1.1-0.8,2.1-2,2.2c-2.7,0.2-5.3,0.7-7.5,2.4
	c0.9,1.9,2,1.4,3.3,0.9c8.3-3.6,9.5-2.8,9.7,6c0.5,0.5,1.1,0.7,1.8,0.6c2-0.8,3.7-1.7,2.2-4.3c-1.1-0.9-1.8-3-0.7-2.9
	c5.4,0.1,2.4-3.3,3.3-5.9c-4,2.8-7.9,1.4-6.7-1.5c0.8-1.8,2.7-3.2,2.3-5.8c-3.2,0.7-5.2,6-9.4,2
	C206.6,156.9,204.2,158.4,203.2,159.9z"/>
<path class="st7" d="M241.7,171.2c-0.1,1.3-0.1,2.7-0.2,4c1.3,0.5,2.7,1.1,4,1.6c3,1,5.7,1,7.8-1.8c-0.6-2.1-4,0.6-4.2-2.4
	c2.2-2.1,1.3-4.2,0.1-6.3c-0.3-1.4,0.2-4.3-2.3-2.9c-1.8,1-5.7,0.5-5,4.4C242.1,169,243.2,170.2,241.7,171.2z"/>
<path class="st24" d="M195.4,168.9c0.3-1.1-1.3-3.3,1.5-2.9c4.5,0.7,1.9-2.5,2.2-4c-2.8,0.5-3.9-0.8-3.9-3.4c-4.3-0.3-8.1,1-7.5,5.9
	C188.3,168.1,191.4,170,195.4,168.9z"/>
<path class="st27" d="M243.8,158.6c-5.2,0.2-8.4-1.1-11.9-3.8c-3.8-2.9-8.9-2.3-11.7,3.1c1.6,1.4,3.1,0.2,4.7,0c3-0.6,6-1.4,8.8,1.5
	C236.3,161.9,239.8,161.6,243.8,158.6z"/>
<path class="st34" d="M253.3,175.1c-2.6,0.6-5.6-0.6-7.8,1.8c0,1.2,0,2.4-0.1,3.5c0.4,0.5,0.8,0.8,1.4,1c1.7,0,3.4-0.7,5.1,0.2
	c1.3-0.2,3.1,1,3.6-1.1C256,178.2,255.5,176.2,253.3,175.1z"/>
<path class="st7" d="M258.2,154.7c-1.8-1.2-3.7,0.2-5.5-0.1c-2.2,0.8-5.3-1.9-6.6,2.1c2.5,1.9,5.4,1.7,8.3,1.5
	C255.5,156.8,258.4,157.5,258.2,154.7z"/>
<path class="st0" d="M218.3,171.5c0.3,2.1-2,2.4-2.6,3.9c1.3,2.6,5.6,1.6,6.1,5.1c0.3,0,0.5,0,0.8-0.1
	C226.2,174.9,222.2,173.3,218.3,171.5z"/>
<path class="st26" d="M194.1,153.7c0.4,1.7,0.8,3.3,1.2,5c1.7-0.2,4.3,0.5,3.8-2.6C198.6,153.4,196.2,153.5,194.1,153.7z"/>
<path class="st26" d="M246.4,180.7c-0.3,0-0.7-0.1-1-0.3c-3.7,0.2-7.4,0.1-10.4,2.7c2.4-0.2,4.7,0.3,6.9,1.1
	C243.4,183,246.7,184.2,246.4,180.7z"/>
<path class="st27" d="M226.4,186.7c1.5,3.2,3.1,4,5,0.2c0-0.4-0.1-0.9-0.1-1.3C228.9,182.7,228,186.3,226.4,186.7z"/>
<path class="st27" d="M246.4,180.7c-1,1.8-5.3-0.6-4.5,3.5c2.5,2.1,5.2,2,6.6-0.9c0.9-1.9,2.3-1.3,3.4-1.8
	C250.3,179.9,248.3,180.4,246.4,180.7z"/>
<path class="st35" d="M113.1,94.1c2.5,0.3,4.4-0.1,3.2-3.2c-0.5-1.3-1.6-2.9-3.2-1.9C110.5,90.5,111.7,92.4,113.1,94.1
	C113.1,94.1,113.1,94.1,113.1,94.1z"/>
<path class="st27" d="M204.2,180.4c-1.5,0-3,0.5-4.4-0.6c-0.3-2.3,4.9-1.8,2.6-5.2c-1.9-2.7-4.5-1.9-7-1.6c-0.1,0.8-0.2,1.6-0.3,2.4
	c3,3.4-3.3,3.4-2.2,6.1c5.6,0.8,10.3,5.5,16.4,4.2c-0.2-2.1-1.5-2.7-3.4-2.6C204,183.1,203.5,182.2,204.2,180.4z"/>
<path class="st26" d="M213.4,175.4c-1.3-1.1-2.4-2.3-3.8-3.2c-1.3-0.8-3.2-1.3-3.6,0.6c-0.7,2.7,1.7,0.1,2.3,1
	c3.6,5.3-1.9,4.8-4.1,6.3c3,0.5,6.3-0.4,9,1.6c1.2-0.9,2.1-2,2-3.6C215.1,177,214.2,176.3,213.4,175.4z"/>
<path class="st26" d="M213.4,175.4c-0.1,1.1,0,2.2,1.2,2.8c1.5,1.7,3.3,1.1,5.2,1c0.7,0.4,1.4,0.9,2.1,1.3c1.1-5.5-2.9-4.8-6.1-5.1
	c-0.5-0.1-0.9-0.1-1.4-0.2C214.1,175.3,213.7,175.3,213.4,175.4z"/>
<path class="st36" d="M219.8,179.2c-1.5-1.7-3.3-1.3-5.2-1c-0.5,1.2-1,2.4-1.4,3.6C216.7,184.2,218.3,181.8,219.8,179.2z"/>
<path class="st27" d="M228.6,171.4c1.2,0.2,2.5,0.4,3.7,0.7c1.9,0.4,4,0.9,4.8-1.5c0.6-1.7-0.8-3.4-2.3-4c-2-0.8-4.2-0.7-5,2
	C229.6,169.6,229.1,170.5,228.6,171.4C228.7,171.5,228.6,171.4,228.6,171.4z"/>
<g>
	<path class="st37" d="M504.9,69.8c-0.8-0.6-1.1-1.6-1.1-3.1c0-1.4,0.5-5.8,1.5-13c1-7.2,1.5-12.4,1.5-15.5c0-3.1-0.2-5.1-0.6-6
		c3.1,0.2,5.1,1.4,6.1,3.6c2.2-1.2,4.7-1.8,7.5-1.8c2.8,0,5.1,0.8,6.8,2.4c1.8,1.6,2.7,3.4,2.7,5.5c0,2.1-0.7,4.2-2.1,6.3
		c-1.4,2.1-3.6,3.7-6.4,4.7l0.6,1.8c1.1,3.4,2.7,6.8,4.7,10.1c2.1,3.3,3.8,5.6,5.1,6.8c-1.1,0.3-2.2,0.5-3.4,0.5s-2.2-0.4-3.4-1.1
		c-1.1-0.7-2.1-1.5-2.8-2.3c-0.7-0.9-1.6-2.2-2.5-4.1s-1.6-3.3-2-4.3c-0.4-1-0.8-2.2-1.3-3.4c-0.5-1.2-0.7-1.9-0.8-2
		c0-0.1-0.1-0.2-0.1-0.3c-0.1-0.1-0.1-0.3-0.1-0.4c-0.7,0-1.3,0-2,0l-0.1-2.1c3.9-0.2,6.7-1.5,8.6-4.1c1-1.5,1.5-2.9,1.5-4.5
		c0-0.6-0.1-1.1-0.2-1.7c-0.5-2-1.7-3.2-3.7-3.7c-0.5-0.2-1.3-0.2-2.3-0.2s-2.3,0.3-3.9,1c0,1.2-0.4,4.9-1.3,11.3
		c-0.9,6.4-1.3,11.7-1.3,16c0,1.9,0.1,3.4,0.3,4.5c-1,0.1-1.6,0.1-1.9,0.1C506.9,70.7,505.6,70.4,504.9,69.8z"/>
	<path class="st37" d="M544.4,58.7c-1.5,0-2.9-0.2-4.3-0.5c0,0.3,0,0.8,0,1.4c0,2.5,0.5,4.4,1.4,5.7c0.9,1.3,2.1,1.9,3.4,1.9
		c1.3,0,2.6-0.4,3.7-1.2c1.2-0.8,2.2-1.9,3.1-3.3c1.1,0.2,1.6,0.8,1.6,1.7c-2.7,4.1-6.1,6.2-10.3,6.2c-2.6,0-4.8-1-6.7-2.9
		s-2.9-4.7-2.9-8.2c0-2.6,0.5-5.1,1.5-7.5c1-2.4,2.6-4.3,4.8-6c2.2-1.6,4.6-2.4,7.3-2.4c2.7,0,4.6,0.6,5.9,1.8
		c1.2,1.2,1.9,2.8,1.9,4.8c0,2.9-1,5-3,6.4C549.7,58,547.3,58.7,544.4,58.7z M546.3,46.4c-1.6,0-2.9,1-3.9,2.9
		c-1.1,1.9-1.8,4.2-2.1,7h0.7c2.6,0,4.6-0.7,5.9-2.1c1.3-1.4,1.9-3,1.9-4.9c0-0.8-0.2-1.5-0.6-2S547.1,46.4,546.3,46.4z"/>
	<path class="st37" d="M569.6,46.3c-0.9,0-1.6,0.3-2.3,0.8c-0.7,0.6-1,1.4-1,2.4c0,1,0.4,2,1.1,2.9c0.7,0.9,1.6,1.7,2.6,2.4
		c1,0.7,2.1,1.4,3.1,2.1c1,0.7,2,1.6,2.8,2.6c0.8,1,1.2,2.2,1.3,3.5c0,2.2-0.9,4-2.8,5.5s-4.2,2.2-7,2.2c-2.8,0-5-0.6-6.6-1.7
		c-1.6-1.1-2.4-2.4-2.4-3.9s0.4-2.6,1.3-3.5c0.9-0.9,2-1.3,3.4-1.3c0.7,0,1.4,0.1,2,0.4c-1,1-1.5,2.1-1.5,3.3c0,1.2,0.3,2.1,1,2.8
		s1.5,1,2.6,1c1.1,0,2-0.3,2.8-0.8c0.7-0.6,1.1-1.3,1.1-2.2c0-0.9-0.3-1.7-0.8-2.4c-0.5-0.7-1.2-1.3-1.9-1.8
		c-0.8-0.5-1.6-1.1-2.5-1.8c-0.9-0.7-1.8-1.3-2.5-2c-0.8-0.7-1.4-1.5-1.9-2.6c-0.5-1-0.8-2.2-0.8-3.4c0-2.2,0.9-3.9,2.7-5.3
		c1.8-1.4,4-2.1,6.7-2.1c2.7,0,4.6,0.5,5.8,1.5c1.2,1,1.8,2.2,1.8,3.6c0,1.4-0.4,2.6-1.3,3.5c-0.9,1-2,1.5-3.4,1.5
		c-0.7,0-1.4-0.1-2.3-0.4c0.7-0.6,1.2-1.2,1.6-2c0.4-0.7,0.5-1.5,0.5-2.2s-0.3-1.3-0.9-1.8C571.2,46.5,570.4,46.3,569.6,46.3z"/>
	<path class="st37" d="M592.1,48.5c-0.2,1.1-0.5,3-1,5.7c-1,5.7-1.5,10-1.5,12.8c0,2.8,0.2,4.6,0.6,5.6c-2.3-0.6-4-1.5-4.8-2.8
		c-0.9-1.3-1.3-3-1.3-5.4c0-2,0.3-4.8,1-8.4c0.6-3.5,1-5.9,1.2-7.2c-1.6,0.3-3.3,0.8-5.1,1.6c-0.1-0.7-0.1-1.2-0.1-1.5
		c0-1.6,0.5-2.7,1.5-3.3s2.4-0.9,4.2-0.9c0.2-2.3,0.3-3.9,0.3-4.9s0-1.8,0-2.5c0-0.7,0-1.2,0-1.5c2,0.2,3.5,0.8,4.4,1.8
		c0.9,1,1.4,2.4,1.4,4.2c0,0.7-0.1,1.7-0.2,3.1c2.6-0.1,4.4-0.6,5.6-1.5c0.1,0.6,0.1,1.1,0.1,1.4c0,1.5-0.3,2.5-0.8,3
		c-0.5,0.6-1.4,0.8-2.6,0.8C593.7,48.5,592.7,48.5,592.1,48.5z"/>
	<path class="st37" d="M605.6,61.3c0,1.4,0.3,2.6,0.8,3.5c0.5,0.9,1.3,1.3,2.3,1.3c1.4,0,2.8-0.8,4.1-2.5c1.3-1.7,2.3-3.8,3.1-6.4
		c0.8-2.6,1.2-5.1,1.2-7.5c0-2.4-0.1-4.3-0.3-5.7c0.9-0.1,1.5-0.1,1.9-0.1c1.6,0,2.7,0.3,3.5,0.9c0.8,0.6,1.2,1.6,1.2,3.1
		c0,0.6-0.4,2.9-1.1,7c-0.7,4.1-1.1,7.4-1.1,9.9c0,2.5,0.5,4.7,1.4,6.6c-2.3-0.4-4-1.2-5-2.5c-1.1-1.3-1.6-3.2-1.6-5.6
		c0-0.4,0.1-1.2,0.2-2.5c-0.8,2.9-2.3,5.2-4.4,7c-2.1,1.8-4.2,2.6-6.2,2.6s-3.6-0.8-4.9-2.3c-1.2-1.5-1.8-3.6-1.8-6.4
		c0-2.8,0.5-5.4,1.5-8c1-2.6,2.5-4.8,4.4-6.6c2-1.8,4.2-2.7,6.6-2.7c1.4,0,2.8,0.3,4.3,1c-3.1,1.1-5.5,3.2-7.3,6.5
		C606.5,55.1,605.6,58.2,605.6,61.3z"/>
	<path class="st37" d="M644,43.6c0.9-0.1,1.5-0.1,1.9-0.1c1.6,0,2.8,0.3,3.6,0.9c0.8,0.6,1.2,1.6,1.2,3.2c0,0.5-0.3,2.6-0.9,6.4
		c-0.6,3.8-0.9,7-0.9,9.7c0,2.7,0.3,5.1,0.9,7.2c-2.3-0.7-3.9-1.8-4.7-3.1c-0.9-1.3-1.3-3-1.3-5c0-0.8,0.2-2.5,0.5-5.2
		c-0.9,3.5-2.4,6.4-4.3,8.7c-1.9,2.4-3.7,3.5-5.4,3.5c-3.5,0-5.2-2.5-5.2-7.6c0-1.7,0.3-4,0.8-7c0.5-3,0.8-5.3,0.8-6.8
		c0-1.5-0.2-3.1-0.6-4.7c2.5,0,4.4,0.3,5.5,1c1.1,0.7,1.7,2,1.7,3.9c0,1-0.3,3.1-1,6.2c-0.6,3.1-1,5.4-1,6.9c0,2.2,0.6,3.4,1.8,3.4
		c0.6,0,1.3-0.4,2.1-1.3c0.8-0.8,1.5-1.9,2.3-3.3c0.7-1.4,1.3-3.1,1.8-5.2c0.5-2.1,0.8-4.2,0.8-6.3C644.3,46.9,644.2,45.1,644,43.6z
		"/>
	<path class="st37" d="M663.6,55.1c1.1-4,2.4-6.9,3.9-8.7c1.5-1.9,3-2.8,4.3-2.8s2.3,0.5,3,1.5c0.7,1,1,2.3,1,3.8s-0.5,3-1.4,4.3
		c-0.9,1.3-2.2,2-3.8,2c-0.4,0-0.9-0.1-1.5-0.4c0.9-1.2,1.4-2.6,1.4-4.3c0-1-0.4-1.5-1.2-1.5c-0.6,0-1.2,0.4-1.9,1.2
		c-0.7,0.8-1.3,1.9-1.9,3.3c-0.6,1.4-1.1,3.2-1.5,5.4c-0.4,2.2-0.6,4.6-0.6,7c0,0.3,0.1,1.6,0.2,3.9c-1,0.1-1.6,0.1-1.9,0.1
		c-1.7,0-3-0.3-3.7-0.9c-0.8-0.6-1.1-1.6-1.1-3c0-0.6,0.3-2.9,1-7c0.6-4.1,1-7.3,1-9.7c0-2.4-0.3-4.6-0.8-6.7c2.2,0.7,3.8,1.7,4.7,3
		c0.9,1.3,1.3,2.8,1.3,4.5C664,51.9,663.9,53.5,663.6,55.1z"/>
	<path class="st37" d="M683.3,61.3c0,1.4,0.3,2.6,0.8,3.5c0.5,0.9,1.3,1.3,2.3,1.3c1.4,0,2.8-0.8,4.1-2.5c1.3-1.7,2.3-3.8,3.1-6.4
		c0.8-2.6,1.2-5.1,1.2-7.5c0-2.4-0.1-4.3-0.3-5.7c0.9-0.1,1.5-0.1,1.9-0.1c1.6,0,2.7,0.3,3.5,0.9c0.8,0.6,1.2,1.6,1.2,3.1
		c0,0.6-0.4,2.9-1.1,7c-0.7,4.1-1.1,7.4-1.1,9.9c0,2.5,0.5,4.7,1.4,6.6c-2.3-0.4-4-1.2-5-2.5c-1.1-1.3-1.6-3.2-1.6-5.6
		c0-0.4,0.1-1.2,0.2-2.5c-0.8,2.9-2.3,5.2-4.4,7c-2.1,1.8-4.2,2.6-6.2,2.6s-3.6-0.8-4.9-2.3c-1.2-1.5-1.8-3.6-1.8-6.4
		c0-2.8,0.5-5.4,1.5-8c1-2.6,2.5-4.8,4.4-6.6c2-1.8,4.2-2.7,6.6-2.7c1.4,0,2.8,0.3,4.3,1c-3.1,1.1-5.5,3.2-7.3,6.5
		C684.2,55.1,683.3,58.2,683.3,61.3z"/>
	<path class="st37" d="M724.2,43.6c1.8,0,3.1,0.6,3.9,1.7c0.8,1.1,1.2,2.6,1.2,4.5c0,1.9-0.3,4.6-0.9,8c-0.6,3.4-0.9,5.9-0.9,7.5
		c0,1.6,0.2,2.7,0.6,3.4c0.4,0.7,1.1,1.3,2,1.8c-0.4,0-1,0-1.7,0c-2.6,0-4.4-0.4-5.4-1.2s-1.6-2.2-1.6-4.1c0-1.1,0.3-3.3,0.9-6.6
		c0.6-3.3,0.9-5.7,0.9-7.3c0-2-0.6-3-1.8-3c-0.7,0-1.5,0.4-2.4,1.2s-1.7,1.9-2.6,3.4c-0.8,1.4-1.5,3.2-2.1,5.4
		c-0.5,2.2-0.8,4.4-0.8,6.6c0,2.2,0.1,3.8,0.3,4.9c-1,0.1-1.6,0.1-1.9,0.1c-1.7,0-3-0.3-3.7-0.9c-0.8-0.6-1.1-1.6-1.1-3
		c0-0.6,0.3-2.9,1-7c0.6-4.1,1-7.3,1-9.7c0-2.4-0.3-4.6-0.8-6.7c2.2,0.7,3.8,1.7,4.7,3c0.9,1.3,1.3,2.8,1.3,4.4
		c0,1.7-0.2,3.6-0.5,5.8c1-3.4,2.6-6.3,4.7-8.7C720.4,44.8,722.4,43.6,724.2,43.6z"/>
	<path class="st37" d="M744.9,48.5c-0.2,1.1-0.5,3-1,5.7c-1,5.7-1.5,10-1.5,12.8c0,2.8,0.2,4.6,0.6,5.6c-2.3-0.6-4-1.5-4.8-2.8
		c-0.9-1.3-1.3-3-1.3-5.4c0-2,0.3-4.8,1-8.4c0.6-3.5,1-5.9,1.2-7.2c-1.6,0.3-3.3,0.8-5.1,1.6c-0.1-0.7-0.1-1.2-0.1-1.5
		c0-1.6,0.5-2.7,1.5-3.3s2.4-0.9,4.2-0.9c0.2-2.3,0.3-3.9,0.3-4.9s0-1.8,0-2.5c0-0.7,0-1.2,0-1.5c2,0.2,3.5,0.8,4.4,1.8
		c0.9,1,1.4,2.4,1.4,4.2c0,0.7-0.1,1.7-0.2,3.1c2.6-0.1,4.4-0.6,5.6-1.5c0.1,0.6,0.1,1.1,0.1,1.4c0,1.5-0.3,2.5-0.8,3
		c-0.5,0.6-1.4,0.8-2.6,0.8C746.5,48.5,745.5,48.5,744.9,48.5z"/>
	<path class="st37" d="M510.2,93.7c0,2.3,1,4.1,2.8,5.4c1.9,1.2,4.6,1.8,8.1,1.8c3.5,0,6.9-0.7,10.3-2.1c0,2.8-0.5,4.6-1.6,5.3
		c-0.5,0.3-1.1,0.5-1.9,0.5h-3c-0.1,0.9-0.4,2.4-0.7,4.8c-0.4,2.3-0.7,4.2-0.9,5.7c-0.5,4-0.8,7.3-0.8,9.8s0.4,4.6,1.1,6.3
		c-2.4-0.6-4.1-1.6-4.9-2.9c-0.9-1.3-1.3-3.2-1.3-5.7c0-1.3,0.1-2.6,0.2-4.1c-0.8,1.3-1.9,2.2-3.3,2.8c-1.4,0.6-2.7,0.9-4.1,0.9
		c-2.6,0-4.8-0.8-6.7-2.4c-1.9-1.6-2.8-3.7-2.8-6.4c0-2.7,0.9-5,2.8-7c1.9-2,4.4-3.3,7.7-3.8c-2.5-0.8-4.3-2-5.4-3.6
		c-1.1-1.6-1.6-3.3-1.6-5.1c0-2.3,1-4.4,2.9-6.2c2-1.8,4.4-2.7,7.4-2.7s5.2,0.6,6.8,1.8c1.6,1.2,2.4,2.7,2.4,4.5
		c0,1.8-0.6,3.3-1.7,4.4c-1.1,1.2-2.6,1.8-4.5,1.8c-0.6,0-1.3-0.1-1.9-0.2c1.7-1.9,2.5-3.4,2.5-4.7c0-1.3-0.3-2.2-1-2.8
		c-0.7-0.6-1.4-0.9-2.3-0.9c-1.4,0-2.6,0.5-3.4,1.4S510.2,92.3,510.2,93.7z M512.5,118.3c2.1,0,3.5-0.7,4.4-2.1
		c0.9-1.4,1.5-3.4,1.8-6l0.8-5.6c-2.3,0-4.2,0.2-5.8,0.7c-1.6,0.5-2.8,1-3.6,1.5c-0.9,0.6-1.6,1.4-2.2,2.4c-0.6,1-0.9,2.3-0.9,3.9
		c0,1.6,0.5,2.9,1.6,3.8C509.6,117.8,511,118.3,512.5,118.3z"/>
	<path class="st37" d="M548.4,120.4c-0.8-0.6-1.1-1.6-1.1-3.1s0.5-5.8,1.5-13c1-7.2,1.5-12.4,1.5-15.5c0-3.1-0.2-5.1-0.6-6
		c3.1,0.2,5.1,1.5,6.1,3.6c2.3-1.3,4.9-1.9,7.7-1.9s5,0.9,6.7,2.6c1.6,1.7,2.4,3.9,2.4,6.5c0,3.2-1.2,6-3.5,8.6
		c-1.1,1.2-2.6,2.2-4.4,3c-1.8,0.8-3.7,1.1-5.9,1.1c-0.9,0-1.8-0.1-2.6-0.2l-0.1-1.9c0.1,0,0.2,0,0.4,0c3.4,0,6.2-1.3,8.2-3.8
		c1.4-1.8,2.1-3.7,2.1-5.7c0-2.9-1.2-4.9-3.6-5.8c-2-0.8-4.3-0.6-6.8,0.5v0.1c0,1.2-0.4,4.9-1.3,11.3c-0.9,6.4-1.3,11.7-1.3,16
		c0,1.9,0.1,3.4,0.3,4.5c-1,0.1-1.6,0.1-1.9,0.1C550.4,121.3,549.2,121,548.4,120.4z"/>
	<path class="st37" d="M582.6,105.1c-0.7,4.3-1.1,7.9-1.1,10.7c0,2.8,0.2,4.6,0.5,5.4c-2.4-0.6-4-1.5-4.8-2.8
		c-0.8-1.2-1.2-3-1.2-5.4c0-1.3,0.2-3.6,0.7-6.9c0.5-3.3,0.7-5.9,0.7-7.8s-0.1-3.3-0.3-4.3c0.7-0.1,1.3-0.1,1.9-0.1
		c1.8,0,3,0.3,3.7,0.9c0.7,0.6,1,1.6,1,3C583.7,98.4,583.3,100.8,582.6,105.1z M584.4,90c-0.9,0.1-1.6,0.2-2.2,0.2
		c-3.1,0-4.7-1.1-4.7-3.3c0-0.8,0.2-1.9,0.7-3.2c0.9-0.1,1.6-0.2,2.2-0.2c3.1,0,4.7,1.1,4.7,3.3C585,87.5,584.8,88.6,584.4,90z"/>
	<path class="st37" d="M602.4,99.6l-9.1,0.9c-1.2,0-2.1-0.3-2.5-0.8c-0.5-0.5-0.7-1.3-0.7-2.3c0-1,0.1-2,0.4-2.9
		c3,0.6,5.8,0.9,8.5,0.9s4.7-0.1,6.3-0.2c0.6-1.2,1-2.2,1.3-3.1c1.8,1.7,2.7,3.1,2.7,4.4c0,1.2-0.7,2.7-2.1,4.5
		c-1.4,1.7-3.5,4.1-6.1,6.9c-2.7,2.9-4.8,5.4-6.5,7.5c2.6,0.1,4.9,0.2,7,0.2c2,0,4.1-0.2,6.1-0.5c0.2,1,0.2,2,0.2,2.9
		c0,1-0.3,1.8-0.8,2.3c-0.5,0.6-1.5,0.8-2.9,0.8c-0.6,0-2.3-0.2-5.1-0.5s-5.2-0.5-7.3-0.5s-4.1,0.3-6,1c0.5-2.9,1.6-4.7,3.4-5.4
		C594.6,109.9,599,104.5,602.4,99.6z"/>
	<path class="st37" d="M624.9,99.6l-9.1,0.9c-1.2,0-2.1-0.3-2.5-0.8c-0.5-0.5-0.7-1.3-0.7-2.3c0-1,0.1-2,0.4-2.9
		c3,0.6,5.8,0.9,8.5,0.9s4.7-0.1,6.3-0.2c0.6-1.2,1-2.2,1.3-3.1c1.8,1.7,2.7,3.1,2.7,4.4c0,1.2-0.7,2.7-2.1,4.5
		c-1.4,1.7-3.5,4.1-6.1,6.9c-2.7,2.9-4.8,5.4-6.5,7.5c2.6,0.1,4.9,0.2,7,0.2c2,0,4.1-0.2,6.1-0.5c0.2,1,0.2,2,0.2,2.9
		c0,1-0.3,1.8-0.8,2.3c-0.5,0.6-1.5,0.8-2.9,0.8c-0.6,0-2.3-0.2-5.1-0.5s-5.2-0.5-7.3-0.5s-4.1,0.3-6,1c0.5-2.9,1.6-4.7,3.4-5.4
		C617.2,109.9,621.6,104.5,624.9,99.6z"/>
	<path class="st37" d="M645,109.4c-1.5,0-2.9-0.2-4.3-0.5c0,0.3,0,0.8,0,1.4c0,2.5,0.5,4.4,1.4,5.7c0.9,1.3,2.1,1.9,3.4,1.9
		c1.3,0,2.6-0.4,3.7-1.2s2.2-1.9,3.1-3.3c1.1,0.2,1.6,0.8,1.6,1.7c-2.7,4.1-6.1,6.2-10.3,6.2c-2.6,0-4.8-1-6.7-2.9s-2.9-4.7-2.9-8.2
		c0-2.6,0.5-5.1,1.5-7.5c1-2.4,2.6-4.3,4.8-6c2.2-1.6,4.6-2.4,7.3-2.4c2.7,0,4.6,0.6,5.9,1.8c1.2,1.2,1.9,2.8,1.9,4.8
		c0,2.9-1,5-3,6.4C650.3,108.7,647.9,109.4,645,109.4z M646.9,97.1c-1.6,0-2.9,1-3.9,2.9c-1.1,1.9-1.8,4.2-2.1,7h0.7
		c2.6,0,4.6-0.7,5.9-2.1c1.3-1.4,1.9-3,1.9-4.9c0-0.8-0.2-1.5-0.6-2S647.7,97.1,646.9,97.1z"/>
	<path class="st37" d="M667.2,105.8c1.1-4,2.4-6.9,3.9-8.7c1.5-1.9,3-2.8,4.3-2.8s2.3,0.5,3,1.5c0.7,1,1,2.3,1,3.8s-0.5,3-1.4,4.3
		c-0.9,1.3-2.2,2-3.8,2c-0.4,0-0.9-0.1-1.5-0.4c0.9-1.2,1.4-2.6,1.4-4.3c0-1-0.4-1.5-1.2-1.5c-0.6,0-1.2,0.4-1.9,1.2
		c-0.7,0.8-1.3,1.9-1.9,3.3c-0.6,1.4-1.1,3.2-1.5,5.4c-0.4,2.2-0.6,4.6-0.6,7c0,0.3,0.1,1.6,0.2,3.9c-1,0.1-1.6,0.1-1.9,0.1
		c-1.7,0-3-0.3-3.7-0.9s-1.1-1.6-1.1-3c0-0.6,0.3-2.9,1-7c0.6-4.1,1-7.3,1-9.7c0-2.4-0.3-4.6-0.8-6.7c2.2,0.7,3.8,1.7,4.7,3
		c0.9,1.3,1.3,2.8,1.3,4.5C667.6,102.5,667.4,104.2,667.2,105.8z"/>
	<path class="st37" d="M689,105.1c-0.7,4.3-1.1,7.9-1.1,10.7c0,2.8,0.2,4.6,0.5,5.4c-2.4-0.6-4-1.5-4.8-2.8c-0.8-1.2-1.2-3-1.2-5.4
		c0-1.3,0.2-3.6,0.7-6.9c0.5-3.3,0.7-5.9,0.7-7.8s-0.1-3.3-0.3-4.3c0.7-0.1,1.3-0.1,1.9-0.1c1.8,0,3,0.3,3.7,0.9c0.7,0.6,1,1.6,1,3
		C690.1,98.4,689.7,100.8,689,105.1z M690.8,90c-0.9,0.1-1.6,0.2-2.2,0.2c-3.1,0-4.7-1.1-4.7-3.3c0-0.8,0.2-1.9,0.7-3.2
		c0.9-0.1,1.6-0.2,2.2-0.2c3.1,0,4.7,1.1,4.7,3.3C691.5,87.5,691.2,88.6,690.8,90z"/>
	<path class="st37" d="M701.5,112c0,1.4,0.3,2.6,0.8,3.5c0.5,0.9,1.3,1.3,2.3,1.3c1.4,0,2.8-0.8,4.1-2.5c1.3-1.7,2.3-3.8,3.1-6.4
		c0.8-2.6,1.2-5.1,1.2-7.5c0-2.4-0.1-4.3-0.3-5.7c0.9-0.1,1.5-0.1,1.9-0.1c1.6,0,2.7,0.3,3.5,0.9c0.8,0.6,1.2,1.6,1.2,3.1
		c0,0.6-0.4,2.9-1.1,7c-0.7,4.1-1.1,7.4-1.1,9.9c0,2.5,0.5,4.7,1.4,6.6c-2.3-0.4-4-1.2-5-2.5c-1.1-1.3-1.6-3.2-1.6-5.6
		c0-0.4,0.1-1.2,0.2-2.5c-0.8,2.9-2.3,5.2-4.4,7c-2.1,1.8-4.2,2.6-6.2,2.6s-3.6-0.8-4.9-2.3c-1.2-1.5-1.8-3.6-1.8-6.4s0.5-5.4,1.5-8
		c1-2.6,2.5-4.8,4.4-6.6c2-1.8,4.2-2.7,6.6-2.7c1.4,0,2.8,0.3,4.3,1c-3.1,1.1-5.5,3.2-7.3,6.5C702.4,105.7,701.5,108.9,701.5,112z"
		/>
</g>
<g>
</g>
<g>
</g>
<g>
</g>
<g>
</g>
<g>
</g>
<g>
</g>
<g>
</g>
<g>
</g>
<g>
</g>
<g>
</g>
<g>
</g>
<g>
</g>
<g>
</g>
<g>
</g>
<g>
</g>
</svg>
