<?xml version="1.0" encoding="utf-8"?>
<!-- Generator: Adobe Illustrator 18.1.1, SVG Export Plug-In . SVG Version: 6.00 Build 0)  -->
<svg version="1.1" xmlns="http://www.w3.org/2000/svg" xmlns:xlink="http://www.w3.org/1999/xlink" x="0px" y="0px" width="279.3px"
	 height="281.3px" viewBox="0 0 279.3 281.3" style="enable-background:new 0 0 279.3 281.3;" xml:space="preserve">
<style type="text/css">
	.st0{fill:#F1F2F2;}
	.st1{fill:#FFFFFF;}
	.st2{fill:#BD081C;}
</style>
<g id="do_not_print">
	<rect x="0" class="st0" width="279.3" height="281.3"/>
</g>
<g id="Pinterest_badge">
	<path class="st1" d="M276.9,141.2c0,75.8-61.4,137.2-137.2,137.2c-75.8,0-137.2-61.4-137.2-137.2S63.9,4,139.7,4
		C215.4,4,276.9,65.4,276.9,141.2"/>
	<g>
		<path class="st2" d="M139.5,4.5C64,4.5,2.9,65.7,2.9,141.2c0,57.9,36,107.3,86.8,127.2c-1.2-10.8-2.3-27.4,0.5-39.2
			c2.5-10.7,16-67.9,16-67.9s-4.1-8.2-4.1-20.3c0-19,11-33.2,24.7-33.2c11.7,0,17.3,8.8,17.3,19.2c0,11.7-7.5,29.3-11.3,45.5
			c-3.2,13.6,6.8,24.7,20.2,24.7c24.3,0,43-25.6,43-62.6c0-32.7-23.5-55.6-57.1-55.6c-38.9,0-61.7,29.2-61.7,59.3
			c0,11.7,4.5,24.3,10.2,31.2c1.1,1.4,1.3,2.5,0.9,3.9c-1,4.3-3.3,13.6-3.8,15.5c-0.6,2.5-2,3-4.6,1.8
			c-17.1-7.9-27.7-32.9-27.7-52.9c0-43.1,31.3-82.7,90.3-82.7c47.4,0,84.2,33.8,84.2,78.9c0,47.1-29.7,85-70.9,85
			c-13.8,0-26.9-7.2-31.3-15.7c0,0-6.9,26.1-8.5,32.5c-3.1,11.9-11.4,26.7-17,35.8c12.8,4,26.4,6.1,40.5,6.1
			c75.5,0,136.6-61.2,136.6-136.6C276.2,65.7,215,4.5,139.5,4.5z"/>
	</g>
	<g>
	</g>
	<g>
	</g>
	<g>
	</g>
	<g>
	</g>
	<g>
	</g>
	<g>
	</g>
</g>
</svg>
